{"glyphs":{"0":{"ha":1324,"x_min":86,"x_max":1242,"o":"m 665 931 l 774 932 q 885 930 851 932 q 994 917 918 928 q 1129 871 1071 907 q 1207 772 1188 835 q 1234 645 1226 710 q 1242 467 1242 581 q 1221 175 1242 264 q 1114 42 1200 86 q 832 -3 1028 -3 l 540 -6 q 174 69 263 -6 q 86 415 86 144 l 86 467 q 158 835 86 743 q 488 928 229 928 l 665 931 m 668 222 l 744 222 q 924 259 879 222 q 969 444 969 296 l 969 465 l 969 485 l 969 501 q 961 608 969 561 q 923 676 953 654 q 858 704 893 699 q 781 711 824 710 q 733 713 739 713 l 603 713 q 398 673 438 713 q 358 482 358 633 l 358 464 q 390 272 358 318 q 558 225 421 225 l 668 222 z "},"1":{"ha":1324,"x_min":186,"x_max":924,"o":"m 647 0 l 647 708 l 311 478 l 186 667 l 582 926 l 924 926 l 924 0 l 647 0 z "},"2":{"ha":1324,"x_min":119,"x_max":1207,"o":"m 121 0 l 121 236 q 167 420 121 361 q 336 496 214 479 l 822 535 q 916 560 888 542 q 944 629 944 578 l 943 649 q 917 722 943 703 q 815 740 892 740 l 671 740 l 507 738 q 440 728 468 738 q 397 700 411 719 q 380 663 383 681 q 376 621 376 644 l 376 589 l 121 589 l 119 654 q 193 881 119 836 q 461 925 267 925 l 772 931 l 928 928 q 1145 867 1083 928 q 1207 651 1207 807 q 1147 408 1207 475 q 914 340 1088 340 l 685 325 l 490 311 q 405 297 435 311 q 375 228 375 283 l 375 188 l 1207 188 l 1207 0 l 121 0 z "},"3":{"ha":1324,"x_min":107,"x_max":1218,"o":"m 739 553 l 788 553 q 897 565 861 553 q 932 633 932 578 q 907 717 932 697 q 797 738 882 738 l 785 738 l 631 742 l 497 738 q 405 716 436 738 q 374 636 374 694 l 375 611 l 113 611 q 166 842 113 778 q 334 916 219 906 q 502 928 449 926 q 640 931 556 931 l 678 931 l 893 926 q 1123 873 1051 926 q 1194 667 1194 819 q 1189 592 1194 622 q 1165 533 1183 561 q 1094 486 1146 504 q 1008 463 1033 469 q 1174 408 1129 449 q 1218 247 1218 367 q 1149 60 1218 125 q 856 -4 1081 -4 l 636 -4 l 458 -3 q 191 48 275 -3 q 107 271 107 99 l 110 321 l 364 321 q 389 217 364 247 q 486 188 414 188 l 647 186 l 803 186 l 835 185 q 922 203 889 185 q 954 274 954 221 q 928 353 954 332 q 842 375 901 375 l 774 374 l 551 374 l 551 553 l 739 553 z "},"4":{"ha":1324,"x_min":93,"x_max":1239,"o":"m 1239 372 l 1239 185 l 1089 185 l 1089 0 l 831 0 l 831 185 l 93 185 l 93 508 l 763 926 l 1089 926 l 1089 372 l 1239 372 m 286 372 l 831 372 l 831 718 l 286 372 z "},"5":{"ha":1324,"x_min":113,"x_max":1218,"o":"m 386 739 l 386 550 q 465 608 421 592 q 569 624 510 624 l 656 625 l 742 625 q 859 624 801 625 q 1019 613 917 624 q 1170 538 1122 601 q 1218 333 1218 474 q 1151 77 1218 157 q 908 -3 1085 -3 l 804 -4 l 699 -4 l 433 3 q 186 58 260 3 q 113 286 113 114 l 371 286 q 430 199 371 210 q 544 189 489 189 l 679 186 l 797 188 q 920 210 885 188 q 956 313 956 233 q 927 412 956 383 q 826 440 899 440 l 675 443 l 522 443 q 468 441 489 443 q 419 430 447 439 q 386 383 392 421 l 149 383 l 161 926 l 1178 926 l 1178 739 l 386 739 z "},"6":{"ha":1324,"x_min":121,"x_max":1210,"o":"m 799 739 l 717 740 l 556 738 q 464 733 494 738 q 415 704 433 728 q 391 655 396 681 q 386 596 386 629 l 386 563 l 386 481 q 483 565 418 547 q 653 582 547 582 l 846 583 q 997 575 932 583 q 1118 542 1063 567 q 1192 455 1174 517 q 1210 314 1210 393 q 1133 59 1210 119 q 849 -1 1057 -1 l 560 -6 q 333 13 408 -6 q 204 72 258 31 q 136 184 150 113 q 122 371 122 256 l 121 571 q 121 625 121 599 q 131 731 121 651 q 228 866 140 810 q 450 922 315 922 q 556 929 506 928 q 672 931 606 931 q 862 928 793 931 q 1024 915 931 926 q 1154 842 1118 903 q 1190 667 1190 781 l 935 667 q 890 725 928 711 q 799 739 853 739 m 797 188 q 910 208 874 188 q 946 297 946 228 q 915 371 946 350 q 831 392 883 392 l 696 392 l 518 389 q 418 371 451 389 q 385 292 385 353 q 422 203 385 222 q 540 185 460 185 l 797 188 z "},"7":{"ha":1324,"x_min":110,"x_max":1214,"o":"m 601 0 l 268 0 l 872 699 l 110 699 l 110 926 l 1214 926 l 1214 715 l 601 0 z "},"8":{"ha":1324,"x_min":113,"x_max":1210,"o":"m 1132 44 q 1035 6 1081 11 q 940 -1 990 0 q 847 -3 890 -3 l 658 -4 l 472 -3 q 203 40 294 -3 q 113 240 113 83 q 152 394 113 351 q 301 471 192 438 q 159 543 196 500 q 122 696 122 586 q 192 876 122 824 q 393 928 261 928 l 563 933 l 776 929 l 856 929 q 1138 868 1069 929 q 1206 685 1206 807 q 1166 540 1206 583 q 1026 468 1126 496 q 1168 400 1126 440 q 1210 268 1210 360 q 1197 131 1210 183 q 1132 44 1183 78 m 818 563 q 908 583 872 563 q 943 654 943 604 q 905 728 943 711 q 801 746 867 746 l 532 747 q 426 731 467 747 q 386 663 386 714 q 424 585 386 607 q 522 564 461 564 l 818 563 m 583 185 l 788 186 q 903 204 858 186 q 947 281 947 222 q 909 365 947 343 q 800 386 871 386 l 517 386 q 413 367 450 386 q 375 288 375 349 q 386 233 375 251 q 426 203 397 214 q 499 189 454 193 q 583 185 543 185 z "},"9":{"ha":1324,"x_min":111,"x_max":1213,"o":"m 501 188 l 643 185 l 801 186 q 910 213 879 186 q 942 310 942 240 l 942 429 q 858 365 910 381 q 731 350 806 350 l 508 347 q 217 402 306 347 q 128 647 128 457 q 209 869 128 813 q 464 926 290 926 l 775 931 q 889 928 851 931 q 999 914 926 926 q 1123 863 1071 901 q 1190 758 1175 825 q 1209 638 1206 692 q 1213 510 1213 585 l 1213 439 q 1147 90 1213 181 q 832 -1 1082 -1 l 643 -6 l 364 4 q 173 60 235 15 q 111 225 111 106 l 113 261 l 374 261 q 410 201 374 215 q 501 188 446 188 m 675 538 l 801 539 q 910 556 869 539 q 950 631 950 572 q 926 710 950 686 q 844 735 901 735 l 782 738 l 639 740 l 531 739 q 419 715 447 739 q 390 644 390 690 q 428 555 390 571 q 554 539 467 539 l 675 538 z "},"­":{"ha":1042,"x_min":64,"x_max":978,"o":"m 64 0 l 64 1042 l 978 1042 l 978 0 l 64 0 m 914 64 l 914 978 l 128 978 l 128 64 l 914 64 z "},"¯":{"ha":1042,"x_min":64,"x_max":978,"o":"m 64 0 l 64 1042 l 978 1042 l 978 0 l 64 0 m 914 64 l 914 978 l 128 978 l 128 64 l 914 64 z "}," ":{"ha":347,"x_min":0,"x_max":0,"o":""},"!":{"ha":454,"x_min":90,"x_max":369,"o":"m 90 0 l 90 258 l 367 258 l 367 0 l 90 0 m 108 379 l 96 926 l 369 926 l 354 379 l 108 379 z "},"\"":{"ha":671,"x_min":24,"x_max":646,"o":"m 24 925 l 310 925 l 260 554 l 74 554 l 24 925 m 360 925 l 646 925 l 594 554 l 408 554 l 360 925 z "},"#":{"ha":918,"x_min":108,"x_max":810,"o":"m 460 60 l 492 283 l 364 283 l 332 60 l 214 60 l 246 283 l 108 283 l 125 399 l 261 399 l 279 519 l 142 519 l 157 635 l 294 635 l 324 839 l 442 839 l 413 635 l 542 635 l 569 839 l 689 839 l 660 635 l 810 635 l 793 519 l 643 519 l 626 399 l 776 399 l 760 283 l 610 283 l 579 60 l 460 60 m 381 399 l 508 399 l 525 519 l 397 519 l 381 399 z "},"$":{"ha":1324,"x_min":47,"x_max":1278,"o":"m 771 569 l 956 564 q 1205 515 1132 564 q 1278 300 1278 465 q 1248 135 1278 201 q 1147 42 1218 69 q 992 7 1075 14 q 801 0 910 0 l 728 0 l 728 -111 l 588 -111 l 588 0 l 549 1 l 394 6 q 277 11 324 6 q 163 42 231 17 q 71 126 94 67 q 47 293 47 185 l 47 321 l 281 321 q 315 217 281 238 q 436 197 349 197 l 588 196 l 588 390 l 561 392 l 354 394 q 128 453 197 394 q 60 664 60 511 q 140 870 60 815 q 376 925 221 925 l 413 925 l 569 926 l 588 926 l 588 1001 l 728 1001 l 728 926 q 882 926 807 926 q 1064 915 957 925 q 1211 847 1171 906 q 1251 653 1251 788 l 1017 653 q 989 720 1017 706 q 907 735 961 735 l 728 736 l 728 569 l 771 569 m 304 667 q 325 599 304 617 q 399 581 346 581 l 588 576 l 588 739 l 401 739 q 323 723 342 739 q 304 667 304 707 m 1040 292 q 1008 368 1040 350 q 908 386 975 386 l 728 390 l 728 196 l 935 196 q 1015 217 989 196 q 1040 292 1040 239 z "},"%":{"ha":1508,"x_min":58,"x_max":1463,"o":"m 422 929 q 606 889 558 929 q 654 713 654 849 l 654 671 q 618 504 654 547 q 428 461 582 461 l 271 460 q 103 499 149 460 q 58 658 58 539 l 58 696 q 95 881 58 835 q 267 926 132 926 l 422 929 m 358 579 q 485 594 461 579 q 508 694 508 610 q 490 790 508 765 q 403 815 471 815 l 313 814 q 260 812 276 814 q 231 801 244 810 q 210 772 217 792 q 204 711 204 751 l 204 694 q 219 601 204 622 q 301 579 235 579 l 358 579 m 439 0 l 311 0 l 1082 926 l 1210 926 l 439 0 m 1231 467 q 1416 424 1369 467 q 1463 250 1463 382 l 1463 203 q 1451 92 1463 138 q 1411 30 1440 47 q 1341 5 1382 13 q 1225 -3 1300 -3 l 1088 -4 q 917 29 968 -4 q 867 196 867 63 l 867 233 q 903 418 867 372 q 1075 464 940 464 l 1231 467 m 1167 115 l 1231 118 q 1303 140 1290 118 q 1317 225 1317 163 l 1317 265 q 1312 310 1317 292 q 1292 337 1307 328 q 1258 349 1276 346 q 1211 353 1239 353 l 1121 351 q 1069 349 1085 351 q 1039 338 1053 347 q 1019 309 1025 329 q 1013 249 1013 289 l 1013 232 q 1027 138 1013 158 q 1111 117 1042 117 l 1167 115 z "},"&":{"ha":1425,"x_min":85,"x_max":1403,"o":"m 1196 265 l 1403 157 l 1319 -10 l 1125 86 q 1008 21 1067 40 q 871 1 949 1 l 676 -6 l 438 -1 q 179 51 274 -1 q 85 254 85 103 q 122 453 85 401 q 297 521 160 504 q 211 597 229 558 q 193 719 193 635 q 248 877 193 829 q 411 925 303 925 l 635 931 l 868 925 q 1077 863 1029 925 q 1125 629 1125 800 l 883 629 l 885 644 q 878 692 885 672 q 856 721 871 713 q 826 732 840 729 q 796 735 811 735 l 606 738 q 561 738 582 738 q 508 733 540 738 q 461 715 475 728 q 447 681 447 701 q 492 619 447 643 q 551 589 538 596 l 972 374 q 978 431 978 400 q 978 469 978 450 q 972 494 974 488 l 1207 494 q 1205 367 1207 403 q 1196 265 1203 332 m 338 310 q 372 217 338 242 q 476 193 406 193 l 601 189 l 918 190 l 444 428 q 415 432 429 432 q 355 395 372 432 q 338 310 338 358 z "},"'":{"ha":343,"x_min":24,"x_max":318,"o":"m 24 925 l 318 925 l 268 554 l 74 554 l 24 925 z "},"(":{"ha":589,"x_min":113,"x_max":563,"o":"m 539 733 q 398 708 425 733 q 371 567 371 682 l 369 225 l 371 138 l 369 15 q 401 -71 369 -47 q 497 -94 432 -94 l 563 -92 l 563 -306 l 453 -304 q 199 -249 282 -304 q 115 -31 115 -194 l 113 158 l 113 401 l 118 693 q 204 881 118 825 q 432 936 290 936 l 563 935 l 563 733 l 539 733 z "},")":{"ha":589,"x_min":28,"x_max":479,"o":"m 478 529 l 479 426 l 478 285 l 474 -31 q 392 -249 474 -193 q 138 -304 311 -304 l 28 -306 l 28 -92 l 86 -93 q 189 -72 157 -93 q 221 15 221 -51 l 219 567 q 193 708 219 683 q 51 733 167 733 l 28 733 l 28 935 l 161 936 q 422 842 365 936 q 478 529 478 749 z "},"*":{"ha":1324,"x_min":340,"x_max":985,"o":"m 732 926 l 732 707 l 942 774 l 985 642 l 775 574 l 904 396 l 792 314 l 663 492 l 533 314 l 419 396 l 550 574 l 340 642 l 383 775 l 593 707 l 593 926 l 732 926 z "},"+":{"ha":694,"x_min":6,"x_max":690,"o":"m 285 853 l 410 853 l 410 571 l 690 571 l 690 450 l 410 450 l 410 168 l 285 168 l 285 450 l 6 450 l 6 571 l 285 571 l 285 853 z "},",":{"ha":447,"x_min":47,"x_max":365,"o":"m 129 -247 l 108 -247 q 47 -243 76 -247 l 47 -99 l 76 -101 q 144 -76 125 -101 q 164 0 164 -50 l 86 0 l 86 258 l 365 258 l 365 0 q 315 -191 365 -135 q 129 -247 264 -247 z "},"-":{"ha":481,"x_min":14,"x_max":467,"o":"m 14 217 l 14 453 l 467 453 l 467 217 l 14 217 z "},".":{"ha":461,"x_min":92,"x_max":368,"o":"m 92 0 l 92 258 l 368 258 l 368 0 l 92 0 z "},"/":{"ha":1083,"x_min":-169,"x_max":1036,"o":"m 32 -296 l -169 -296 l 840 926 l 1036 926 l 32 -296 z "},":":{"ha":461,"x_min":92,"x_max":368,"o":"m 92 390 l 92 649 l 368 649 l 368 390 l 92 390 m 92 0 l 92 258 l 368 258 l 368 0 l 92 0 z "},";":{"ha":447,"x_min":47,"x_max":365,"o":"m 89 390 l 89 649 l 365 649 l 365 390 l 89 390 m 129 -247 l 108 -247 q 47 -243 76 -247 l 47 -99 l 76 -101 q 144 -76 125 -101 q 164 0 164 -50 l 86 0 l 86 258 l 365 258 l 365 0 q 315 -191 365 -135 q 129 -247 264 -247 z "},"<":{"ha":694,"x_min":46,"x_max":647,"o":"m 324 469 l 646 286 l 647 26 l 46 360 l 46 579 l 647 913 l 647 651 l 324 469 z "},"=":{"ha":694,"x_min":4,"x_max":690,"o":"m 690 560 l 4 560 l 4 676 l 690 676 l 690 560 m 690 344 l 4 344 l 4 461 l 690 461 l 690 344 z "},">":{"ha":694,"x_min":47,"x_max":649,"o":"m 371 469 l 49 653 l 47 913 l 649 579 l 649 360 l 47 26 l 47 288 l 371 469 z "},"?":{"ha":1106,"x_min":54,"x_max":993,"o":"m 332 0 l 332 258 l 608 258 l 608 0 l 332 0 m 649 581 q 728 606 697 588 q 758 669 758 625 q 721 735 758 715 q 633 756 683 756 l 518 758 l 419 756 q 325 732 356 756 q 294 650 294 708 q 297 608 294 622 l 54 608 q 108 858 54 788 q 329 928 163 928 l 519 935 q 674 933 624 935 q 815 918 725 931 q 949 844 904 906 q 993 674 993 783 l 993 653 q 985 547 993 588 q 943 469 978 507 q 750 403 908 432 q 589 342 592 374 l 590 326 l 351 326 q 405 520 351 489 q 649 581 458 551 z "},"@":{"ha":1535,"x_min":85,"x_max":1453,"o":"m 1288 -21 q 1247 -24 1276 -22 q 1176 -25 1218 -25 l 526 -28 l 304 -22 q 124 46 163 -22 q 86 269 86 114 l 85 457 l 86 636 q 114 865 86 790 q 265 940 142 940 l 444 947 l 754 949 l 893 949 l 1242 938 q 1418 857 1383 938 q 1453 604 1453 776 l 1453 451 q 1451 388 1453 415 q 1443 320 1450 360 q 1413 251 1436 281 q 1353 215 1390 222 q 1265 206 1315 208 q 1179 203 1215 203 q 1051 214 1103 203 q 985 257 999 225 q 971 332 971 289 q 878 231 947 254 q 704 208 810 208 q 569 217 624 208 q 474 256 515 226 q 422 328 432 285 q 411 435 411 372 l 411 460 q 415 570 411 539 q 441 643 419 601 q 533 700 463 685 q 701 715 603 715 l 746 715 q 887 699 831 715 q 971 626 943 683 l 971 711 l 1124 711 l 1124 418 q 1138 352 1124 375 q 1193 329 1153 329 l 1206 329 q 1270 358 1256 329 q 1285 440 1285 386 l 1288 617 l 1288 633 q 1280 738 1288 700 q 1251 788 1272 775 q 1203 806 1231 801 q 1134 813 1175 811 q 1089 814 1093 814 l 950 817 l 775 818 l 540 817 l 389 815 q 280 777 303 815 q 257 653 257 739 l 257 604 l 251 460 l 258 239 q 281 147 264 172 q 347 113 297 121 q 430 104 396 106 q 510 103 464 103 l 786 101 l 1182 103 q 1255 113 1225 103 q 1293 156 1285 124 l 1450 126 q 1395 24 1433 60 q 1288 -21 1357 -11 m 786 322 q 928 349 889 322 q 968 469 968 376 q 933 585 968 560 q 797 611 899 611 l 746 611 q 665 606 701 611 q 610 584 628 600 q 585 545 593 568 q 578 475 578 522 l 578 465 q 606 355 578 386 q 711 324 633 324 l 786 322 z "},"A":{"ha":1496,"x_min":47,"x_max":1450,"o":"m 361 0 l 47 0 l 564 926 l 944 926 l 1450 0 l 1139 0 l 1051 168 l 453 168 l 361 0 m 551 360 l 949 360 l 750 726 l 551 360 z "},"B":{"ha":1424,"x_min":121,"x_max":1322,"o":"m 1000 926 q 1213 874 1139 926 q 1286 688 1286 821 q 1276 588 1286 629 q 1238 524 1265 547 q 1188 492 1211 500 q 1124 472 1165 483 q 1279 415 1236 454 q 1322 267 1322 376 q 1248 56 1322 113 q 1014 0 1174 0 l 121 0 l 121 926 l 1000 926 m 1001 646 q 974 708 1001 693 q 894 724 947 724 l 403 724 l 403 563 l 889 563 q 973 578 944 563 q 1001 646 1001 593 m 1039 300 q 1015 358 1039 338 q 919 379 990 379 l 403 379 l 403 210 l 915 210 q 1001 220 964 210 q 1039 300 1039 231 z "},"C":{"ha":1388,"x_min":104,"x_max":1289,"o":"m 1289 313 q 1219 58 1289 121 q 942 -6 1149 -6 l 726 -10 l 551 -7 q 192 66 272 -7 q 113 293 113 139 l 104 488 q 171 822 104 715 q 443 928 238 928 l 707 935 q 897 933 822 935 q 1079 919 972 931 q 1232 826 1186 908 q 1278 600 1278 743 l 1004 600 q 973 685 1004 664 q 874 707 942 707 l 794 708 l 717 708 l 574 707 q 417 660 446 707 q 389 464 389 613 q 422 265 389 311 q 600 219 456 219 l 710 217 l 854 218 q 975 242 939 218 q 1011 353 1011 265 l 1288 353 l 1289 313 z "},"D":{"ha":1463,"x_min":121,"x_max":1361,"o":"m 938 926 q 1275 843 1189 926 q 1361 510 1361 760 l 1361 457 l 1361 428 l 1361 403 q 1359 311 1361 338 q 1343 203 1357 285 q 1247 61 1329 122 q 1042 0 1165 0 l 121 0 l 121 926 l 938 926 m 1076 460 l 1076 468 q 1046 651 1076 604 q 882 699 1015 699 l 403 699 l 403 226 l 878 226 q 1042 275 1008 226 q 1076 460 1076 324 z "},"E":{"ha":1242,"x_min":121,"x_max":1154,"o":"m 1154 926 l 1154 715 l 403 715 l 403 557 l 1104 557 l 1104 374 l 403 374 l 403 210 l 1154 210 l 1154 0 l 121 0 l 121 926 l 1154 926 z "},"F":{"ha":1154,"x_min":121,"x_max":1104,"o":"m 1104 926 l 1104 715 l 403 715 l 403 557 l 1104 557 l 1104 374 l 403 374 l 403 0 l 121 0 l 121 926 l 1104 926 z "},"G":{"ha":1413,"x_min":103,"x_max":1313,"o":"m 1311 522 l 1313 328 q 1253 74 1313 157 q 1024 -8 1194 -8 l 876 -10 l 708 -8 l 563 -7 q 309 15 403 -7 q 160 110 215 36 q 106 335 106 183 l 103 451 q 169 826 103 722 q 483 931 236 931 l 694 935 l 772 936 l 961 932 q 1227 869 1144 932 q 1310 625 1310 806 l 1310 608 l 1033 608 q 1024 665 1033 642 q 988 699 1014 689 q 937 710 961 708 q 867 713 913 713 l 540 714 q 414 665 440 714 q 388 501 388 617 l 388 415 q 414 273 388 319 q 489 220 440 226 q 564 213 538 214 q 631 211 590 211 l 882 210 q 994 233 953 210 q 1035 322 1035 257 l 1033 349 l 676 349 l 676 522 l 1311 522 z "},"H":{"ha":1444,"x_min":119,"x_max":1324,"o":"m 1324 926 l 1324 0 l 1040 0 l 1040 357 l 401 357 l 401 0 l 119 0 l 119 926 l 401 926 l 401 588 l 1040 588 l 1040 926 l 1324 926 z "},"I":{"ha":524,"x_min":121,"x_max":403,"o":"m 121 0 l 121 926 l 403 926 l 403 0 l 121 0 z "},"J":{"ha":1121,"x_min":46,"x_max":1000,"o":"m 1000 378 q 959 122 1000 208 q 817 16 918 35 q 643 -6 717 -3 q 503 -8 569 -8 q 231 9 319 -8 q 94 102 143 26 q 46 350 46 178 l 47 396 l 318 396 l 317 335 q 360 240 317 261 q 488 218 404 218 l 563 218 q 674 235 631 218 q 717 307 717 253 l 718 378 l 718 926 l 1000 926 l 1000 378 z "},"K":{"ha":1413,"x_min":121,"x_max":1376,"o":"m 547 578 l 929 926 l 1318 926 l 788 468 l 1376 0 l 963 0 l 547 353 l 403 353 l 403 0 l 121 0 l 121 926 l 403 926 l 403 578 l 547 578 z "},"L":{"ha":1079,"x_min":121,"x_max":1043,"o":"m 1043 232 l 1043 0 l 121 0 l 121 926 l 403 926 l 403 232 l 1043 232 z "},"M":{"ha":1811,"x_min":119,"x_max":1690,"o":"m 1424 0 l 1424 706 l 1015 0 l 789 0 l 385 706 l 385 0 l 119 0 l 119 926 l 568 926 l 908 313 l 1244 926 l 1690 926 l 1690 0 l 1424 0 z "},"N":{"ha":1513,"x_min":119,"x_max":1392,"o":"m 943 0 l 385 696 l 385 0 l 119 0 l 119 926 l 568 926 l 1126 232 l 1126 926 l 1392 926 l 1392 0 l 943 0 z "},"O":{"ha":1474,"x_min":103,"x_max":1372,"o":"m 718 936 l 943 935 q 1281 853 1190 935 q 1372 525 1372 771 l 1372 481 q 1300 94 1372 192 q 935 -4 1228 -4 l 722 -8 l 633 -10 l 442 -3 q 193 70 281 -3 q 106 306 106 143 l 103 476 q 175 845 103 758 q 518 932 247 932 l 718 936 m 565 221 l 717 218 l 861 219 q 1033 245 981 219 q 1085 372 1085 271 l 1088 497 q 1080 606 1088 561 q 1049 673 1072 651 q 978 701 1025 694 q 879 708 932 708 l 599 707 q 453 688 503 707 q 395 605 403 668 q 388 500 388 542 l 388 475 l 388 438 q 417 265 388 310 q 565 221 447 221 z "},"P":{"ha":1321,"x_min":121,"x_max":1243,"o":"m 871 926 q 1162 858 1081 926 q 1243 585 1243 790 q 1180 310 1243 390 q 915 231 1117 231 l 843 231 l 403 231 l 403 0 l 121 0 l 121 926 l 871 926 m 958 575 q 925 677 958 653 q 808 701 892 701 l 403 701 l 403 456 l 813 456 q 926 478 893 456 q 958 575 958 501 z "},"Q":{"ha":1478,"x_min":103,"x_max":1478,"o":"m 1269 72 q 1128 11 1204 28 q 958 -6 1051 -6 l 749 -10 l 528 -10 q 315 6 400 -10 q 181 78 231 22 q 119 205 132 133 q 106 365 106 276 l 103 481 q 106 597 103 542 q 121 731 108 651 q 226 871 133 810 q 536 932 319 932 l 749 935 q 937 933 861 935 q 1119 920 1013 931 q 1294 842 1225 910 q 1364 638 1364 774 q 1369 545 1368 601 q 1371 482 1371 489 q 1369 354 1371 399 q 1358 249 1367 310 l 1478 183 l 1379 -3 l 1269 72 m 1086 499 q 1085 561 1086 535 q 1074 628 1083 588 q 1022 688 1065 669 q 917 706 979 706 l 750 708 q 621 707 671 708 q 501 698 571 706 q 410 646 432 690 q 388 515 388 601 l 388 440 q 422 260 388 303 q 601 217 456 217 l 913 222 q 997 233 953 222 l 697 399 l 814 583 l 1086 408 l 1086 499 z "},"R":{"ha":1404,"x_min":121,"x_max":1293,"o":"m 983 926 q 1222 862 1150 926 q 1293 633 1293 797 q 1286 526 1293 571 q 1258 449 1279 482 q 1210 401 1238 417 q 1093 356 1182 385 q 1236 306 1190 343 q 1282 178 1282 269 l 1282 0 l 996 0 l 996 89 q 984 197 996 157 q 874 238 972 238 l 403 238 l 403 0 l 121 0 l 121 926 l 983 926 m 865 463 q 985 486 961 463 q 1008 592 1008 510 q 999 660 1008 638 q 962 690 990 682 q 915 700 933 699 q 872 701 897 701 l 850 701 l 403 701 l 403 463 l 829 463 l 865 463 z "},"S":{"ha":1365,"x_min":101,"x_max":1264,"o":"m 388 281 q 426 209 388 224 q 532 194 464 194 l 665 193 l 854 199 q 956 218 932 199 q 979 279 979 238 q 952 339 979 317 q 849 361 925 361 l 803 361 l 339 371 q 155 437 208 371 q 101 639 101 503 q 135 818 101 754 q 259 905 169 882 q 494 932 349 928 q 689 936 639 936 l 886 933 q 1076 915 1004 933 q 1178 846 1149 896 q 1217 756 1208 796 q 1225 644 1225 715 l 949 644 q 920 713 949 693 q 840 732 892 732 l 704 733 l 489 726 q 416 710 446 726 q 386 657 386 694 q 422 590 386 606 q 518 574 457 574 l 547 574 l 736 571 l 922 569 q 1183 513 1101 569 q 1264 288 1264 457 q 1191 63 1264 124 q 950 1 1118 1 l 589 -8 l 400 -4 q 179 44 250 -4 q 108 240 108 93 l 108 296 l 386 296 l 388 281 z "},"T":{"ha":1182,"x_min":36,"x_max":1144,"o":"m 450 0 l 450 694 l 36 694 l 36 926 l 1144 926 l 1144 694 l 732 694 l 732 0 l 450 0 z "},"U":{"ha":1431,"x_min":119,"x_max":1310,"o":"m 1310 397 l 1310 343 q 1197 58 1310 126 q 847 -11 1083 -11 l 617 -10 q 336 10 433 -10 q 179 108 239 29 q 119 357 119 188 l 119 925 l 401 925 l 401 440 q 435 260 401 301 q 603 218 468 218 l 729 217 l 846 218 q 994 254 961 218 q 1026 400 1026 290 l 1026 435 l 1026 925 l 1310 925 l 1310 397 z "},"V":{"ha":1439,"x_min":36,"x_max":1401,"o":"m 525 0 l 36 926 l 344 926 l 708 228 l 1088 926 l 1401 926 l 885 0 l 525 0 z "},"W":{"ha":2015,"x_min":38,"x_max":1978,"o":"m 1213 0 l 1007 657 l 793 0 l 414 0 l 38 926 l 326 926 l 597 224 l 840 926 l 1181 926 l 1411 224 l 1690 926 l 1978 926 l 1596 0 l 1213 0 z "},"X":{"ha":1467,"x_min":36,"x_max":1429,"o":"m 1429 0 l 1043 0 l 732 332 l 419 0 l 36 0 l 499 463 l 63 926 l 439 926 l 735 594 l 1032 926 l 1396 926 l 963 463 l 1429 0 z "},"Y":{"ha":1389,"x_min":28,"x_max":1361,"o":"m 1361 926 l 840 322 l 840 0 l 557 0 l 557 322 l 28 926 l 383 926 l 697 544 l 1008 926 l 1361 926 z "},"Z":{"ha":1285,"x_min":79,"x_max":1206,"o":"m 1206 210 l 1206 0 l 79 0 l 79 210 l 778 715 l 97 715 l 97 926 l 1192 926 l 1192 715 l 488 210 l 1206 210 z "},"[":{"ha":589,"x_min":121,"x_max":571,"o":"m 358 742 l 358 -111 l 571 -111 l 571 -296 l 121 -296 l 121 926 l 571 926 l 571 742 l 358 742 z "},"\\":{"ha":1083,"x_min":47,"x_max":1253,"o":"m 1051 -296 l 47 926 l 243 926 l 1253 -296 l 1051 -296 z "},"]":{"ha":589,"x_min":18,"x_max":468,"o":"m 468 -296 l 18 -296 l 18 -111 l 231 -111 l 231 742 l 18 742 l 18 926 l 468 926 l 468 -296 z "},"^":{"ha":694,"x_min":8,"x_max":686,"o":"m 201 932 l 492 932 l 686 468 l 457 468 l 347 756 l 238 468 l 8 468 l 201 932 z "},"_":{"ha":694,"x_min":0,"x_max":694,"o":"m 694 -221 l 0 -221 l 0 -68 l 694 -68 l 694 -221 z "},"`":{"ha":694,"x_min":165,"x_max":531,"o":"m 496 724 l 165 817 l 219 969 l 531 817 l 496 724 z "},"a":{"ha":1061,"x_min":83,"x_max":960,"o":"m 396 657 l 647 663 q 878 618 797 663 q 960 438 960 574 l 960 0 l 718 0 l 718 106 q 617 7 690 28 q 429 -14 544 -14 l 385 -14 q 156 25 229 -14 q 83 206 83 64 q 140 360 83 308 q 299 413 196 413 q 408 417 353 417 l 446 417 l 517 417 q 638 404 590 417 q 718 347 686 392 l 718 418 q 693 497 718 476 q 608 517 668 517 l 497 519 l 418 517 q 367 507 383 517 q 350 465 350 497 l 111 465 q 191 617 111 576 q 396 657 271 657 m 486 139 l 507 139 q 637 147 586 139 q 703 169 688 154 q 718 217 718 185 q 687 269 718 256 q 611 282 656 282 l 474 285 q 365 273 410 285 q 321 214 321 261 q 356 153 321 168 q 446 139 390 139 l 486 139 z "},"b":{"ha":1115,"x_min":101,"x_max":1032,"o":"m 342 542 q 456 641 385 621 q 644 661 526 661 q 949 602 867 661 q 1032 329 1032 543 q 956 51 1032 117 q 653 -14 881 -14 l 617 -14 q 442 10 504 -14 q 342 122 379 35 l 342 0 l 101 0 l 101 925 l 342 925 l 342 542 m 574 164 q 683 170 636 164 q 753 196 731 176 q 783 244 776 215 q 789 308 789 274 q 756 453 789 424 q 596 483 724 483 l 568 483 q 501 483 533 483 q 422 472 469 482 q 358 429 375 463 q 340 331 340 396 q 383 196 340 228 q 533 164 426 164 l 574 164 z "},"c":{"ha":1069,"x_min":83,"x_max":986,"o":"m 911 56 q 758 -1 857 11 q 542 -14 658 -14 q 283 6 375 -14 q 138 99 192 25 q 83 332 83 174 q 144 565 83 492 q 358 653 204 639 l 586 663 q 886 618 792 663 q 981 394 981 574 l 739 394 q 729 434 735 419 q 707 461 724 449 q 652 478 690 474 q 571 483 614 483 l 532 483 q 433 478 474 483 q 368 454 392 472 q 335 408 344 436 q 326 326 326 381 q 375 192 326 218 q 546 165 424 165 q 666 174 625 165 q 721 198 707 182 q 738 228 735 214 q 742 265 742 242 l 986 265 q 972 142 986 190 q 911 56 958 94 z "},"d":{"ha":1117,"x_min":90,"x_max":1022,"o":"m 788 0 l 788 140 q 687 17 764 49 q 497 -14 610 -14 q 293 -1 381 -14 q 160 56 206 13 q 102 157 114 99 q 90 293 90 215 l 90 340 q 103 497 90 433 q 169 598 117 560 q 305 649 222 636 q 479 663 388 663 q 685 634 624 663 q 788 544 746 606 l 788 926 l 1022 926 l 1022 0 l 788 0 m 588 165 q 744 190 701 165 q 786 317 786 215 q 750 455 786 426 q 593 483 714 483 l 540 483 q 445 478 488 483 q 378 454 403 472 q 346 407 353 436 q 339 333 339 378 q 371 196 339 228 q 508 164 403 164 l 588 165 z "},"e":{"ha":1046,"x_min":83,"x_max":965,"o":"m 603 -14 l 371 -6 q 144 79 204 -6 q 83 343 83 164 q 147 583 83 507 q 369 658 211 658 l 597 663 q 768 651 700 663 q 885 600 836 640 q 949 500 933 560 q 965 364 965 440 q 965 326 965 347 q 964 279 964 306 l 328 279 q 356 172 328 203 q 458 140 383 140 l 594 138 q 671 143 640 138 q 712 163 701 149 q 725 213 722 176 l 964 213 q 870 26 964 67 q 603 -14 776 -14 m 489 518 q 369 502 413 518 q 326 422 326 486 l 328 404 l 726 404 q 692 497 726 475 q 579 518 657 518 l 489 518 z "},"f":{"ha":718,"x_min":65,"x_max":676,"o":"m 433 489 l 433 0 l 192 0 l 192 489 l 65 489 l 65 649 l 192 649 q 260 887 192 825 q 507 949 329 949 q 594 945 539 949 q 661 942 650 942 l 661 785 l 567 788 q 498 781 521 788 q 460 760 475 774 q 438 728 444 747 q 432 665 432 708 l 433 649 l 676 649 l 676 489 l 433 489 z "},"g":{"ha":1121,"x_min":85,"x_max":1021,"o":"m 1021 -28 q 943 -223 1021 -151 q 743 -294 865 -294 q 638 -303 699 -300 q 521 -306 578 -306 q 222 -264 331 -306 q 113 -68 113 -222 l 357 -68 q 383 -114 357 -97 q 463 -134 408 -131 q 529 -137 517 -137 l 558 -137 q 682 -128 628 -137 q 754 -92 736 -118 q 776 -42 772 -65 q 779 13 779 -18 l 779 138 q 692 39 749 72 q 493 6 635 6 q 172 63 258 6 q 85 344 85 121 q 125 555 85 478 q 256 646 165 632 q 425 661 347 660 q 535 663 503 663 q 693 640 642 663 q 779 529 744 617 l 779 649 l 1021 649 l 1021 13 l 1021 -28 m 551 183 l 572 183 q 676 190 643 183 q 735 212 710 196 q 767 256 760 228 q 775 318 775 283 l 775 350 q 753 451 775 421 q 660 481 732 481 l 532 483 l 490 483 q 411 478 443 483 q 360 456 379 472 q 334 413 340 439 q 328 361 328 388 l 328 338 q 347 231 328 264 q 430 191 367 197 q 511 184 493 185 q 551 183 529 183 z "},"h":{"ha":1088,"x_min":103,"x_max":986,"o":"m 617 663 q 894 601 803 663 q 986 363 986 540 l 986 0 l 746 0 l 746 324 q 720 452 746 421 q 568 483 694 483 l 553 483 q 391 453 439 483 q 343 321 343 422 l 343 269 l 343 0 l 103 0 l 103 926 l 343 926 l 343 538 q 444 640 379 618 q 617 663 508 663 z "},"i":{"ha":444,"x_min":101,"x_max":342,"o":"m 101 751 l 101 926 l 342 926 l 342 751 l 101 751 m 101 0 l 101 649 l 342 649 l 342 0 l 101 0 z "},"j":{"ha":501,"x_min":46,"x_max":400,"o":"m 160 751 l 160 926 l 400 926 l 400 751 l 160 751 m 399 -43 q 334 -203 399 -158 q 147 -249 269 -249 q 46 -242 101 -249 l 46 -85 q 78 -89 63 -89 q 140 -67 121 -89 q 158 0 158 -44 l 158 649 l 400 649 l 400 33 l 399 -43 z "},"k":{"ha":1036,"x_min":101,"x_max":999,"o":"m 394 439 l 624 649 l 946 649 l 608 353 l 999 0 l 675 0 l 407 268 l 342 268 l 342 0 l 101 0 l 101 926 l 342 926 l 342 439 l 394 439 z "},"l":{"ha":444,"x_min":101,"x_max":342,"o":"m 101 0 l 101 926 l 342 926 l 342 0 l 101 0 z "},"m":{"ha":1650,"x_min":101,"x_max":1547,"o":"m 342 528 q 443 635 378 607 q 607 663 508 663 q 795 632 715 663 q 914 518 875 601 q 1013 633 939 603 q 1194 663 1088 663 q 1453 596 1360 663 q 1547 371 1547 529 l 1547 0 l 1307 0 l 1307 322 l 1307 343 q 1276 449 1307 421 q 1151 476 1246 476 l 1126 476 q 1023 464 1065 476 q 966 424 981 451 q 948 372 951 396 q 944 322 944 347 l 944 310 l 944 0 l 704 0 l 704 339 q 672 448 704 419 q 553 476 639 476 l 532 476 q 390 450 438 476 q 342 339 342 424 l 342 0 l 101 0 l 101 649 l 342 649 l 342 528 z "},"n":{"ha":1085,"x_min":101,"x_max":983,"o":"m 342 515 q 442 633 372 604 q 621 663 511 663 q 901 598 818 663 q 983 340 983 533 l 983 0 l 742 0 l 742 340 q 706 451 742 426 q 575 476 671 476 l 547 476 q 391 445 440 476 q 342 306 342 414 l 342 290 l 342 0 l 101 0 l 101 649 l 342 649 l 342 515 z "},"o":{"ha":1096,"x_min":90,"x_max":1019,"o":"m 536 661 l 788 651 q 969 572 918 636 q 1019 371 1019 507 l 1019 343 q 975 78 1019 146 q 733 -8 931 10 l 469 -14 q 174 40 258 -14 q 90 292 90 94 l 90 331 q 113 525 90 454 q 210 624 135 596 q 385 657 286 653 q 536 661 485 661 m 540 164 l 567 164 q 674 168 633 164 q 737 188 715 172 q 767 228 758 204 q 776 303 776 253 l 776 351 q 768 417 776 396 q 736 456 760 439 q 663 478 713 472 q 549 483 613 483 q 440 477 485 483 q 369 449 396 471 q 338 385 342 426 q 333 321 333 344 q 340 244 333 279 q 371 190 347 208 q 455 168 394 172 q 540 164 515 164 z "},"p":{"ha":1115,"x_min":101,"x_max":1031,"o":"m 342 544 q 374 600 356 576 q 428 638 392 624 q 515 657 464 651 q 633 663 565 663 q 938 615 844 663 q 1031 378 1031 567 l 1031 299 q 1021 165 1031 219 q 967 63 1011 111 q 840 1 924 15 q 636 -14 756 -14 q 452 9 526 -14 q 342 110 378 32 l 342 -287 l 101 -287 l 101 649 l 342 649 l 342 544 m 596 165 q 753 195 717 165 q 789 339 789 225 q 763 449 789 418 q 654 481 736 481 l 496 483 q 419 478 444 483 q 376 458 394 472 q 350 417 357 444 q 343 351 343 389 l 343 326 q 369 205 343 242 q 476 168 396 168 l 596 165 z "},"q":{"ha":1107,"x_min":94,"x_max":1017,"o":"m 1017 -287 l 776 -287 l 776 107 q 685 17 744 49 q 489 -14 626 -14 q 164 56 233 -14 q 94 272 94 125 q 162 587 94 513 q 463 661 229 661 l 515 661 q 677 642 621 661 q 776 549 733 622 l 776 647 l 1017 647 l 1017 -287 m 367 199 q 447 170 394 176 q 568 164 499 164 l 590 164 q 743 191 706 164 q 781 324 781 218 l 781 333 q 775 405 781 375 q 751 450 769 435 q 687 474 732 465 q 571 483 642 483 l 533 483 q 438 478 481 483 q 374 455 396 472 q 344 408 351 438 q 338 340 338 379 l 338 331 l 338 293 q 343 236 338 260 q 367 199 349 213 z "},"r":{"ha":915,"x_min":101,"x_max":860,"o":"m 342 519 q 433 633 368 603 q 596 663 497 663 q 803 610 746 663 q 860 410 860 557 l 860 368 l 636 368 q 635 383 635 372 q 601 466 629 449 q 496 483 572 483 q 375 437 408 483 q 342 296 342 390 l 342 0 l 101 0 l 101 649 l 342 649 l 342 519 z "},"s":{"ha":1071,"x_min":83,"x_max":988,"o":"m 665 508 q 625 515 646 514 q 575 517 604 517 l 471 517 q 426 516 447 517 q 383 512 406 515 q 345 494 360 508 q 331 460 331 481 q 353 424 331 432 q 411 415 375 415 l 676 414 q 910 383 832 414 q 988 222 988 351 q 965 94 988 140 q 880 24 943 49 q 730 -7 817 0 q 542 -14 643 -14 l 440 -14 q 176 22 268 -14 q 83 200 83 58 l 335 200 q 367 147 335 156 q 424 136 400 138 q 482 135 449 135 l 596 133 q 664 136 633 133 q 720 149 694 139 q 746 199 746 160 q 722 238 746 229 q 661 247 699 247 l 481 247 l 275 253 q 88 450 88 269 q 156 604 88 564 q 351 656 224 644 l 586 661 q 707 659 667 661 q 817 645 747 657 q 921 592 886 633 q 956 472 956 551 l 703 472 q 665 508 699 501 z "},"t":{"ha":906,"x_min":56,"x_max":818,"o":"m 426 489 l 426 282 q 447 192 426 218 q 528 165 467 165 q 606 183 582 165 q 631 253 631 201 l 631 282 l 818 282 q 763 48 818 110 q 531 -14 708 -14 q 246 41 313 -14 q 179 211 179 96 l 179 489 l 56 489 l 56 649 l 179 649 l 179 807 l 426 807 l 426 649 l 818 649 l 818 489 l 426 489 z "},"u":{"ha":1093,"x_min":103,"x_max":992,"o":"m 751 0 l 751 133 q 648 16 729 46 q 456 -14 567 -14 q 189 49 275 -14 q 103 288 103 113 l 103 649 l 343 649 l 343 310 q 389 191 343 217 q 538 165 435 165 q 701 202 650 165 q 751 344 751 239 l 751 364 l 751 649 l 992 649 l 992 0 l 751 0 z "},"v":{"ha":1039,"x_min":42,"x_max":997,"o":"m 363 0 l 42 649 l 313 649 l 521 183 l 728 649 l 997 649 l 678 0 l 363 0 z "},"w":{"ha":1535,"x_min":64,"x_max":1469,"o":"m 892 0 l 765 383 l 631 0 l 300 0 l 64 649 l 318 649 l 469 164 l 650 649 l 879 649 l 1056 164 l 1213 649 l 1469 649 l 1229 0 l 892 0 z "},"x":{"ha":1032,"x_min":42,"x_max":990,"o":"m 990 0 l 681 0 l 513 233 l 343 0 l 42 0 l 329 342 l 60 649 l 381 649 l 508 474 l 647 649 l 960 649 l 699 350 l 990 0 z "},"y":{"ha":1031,"x_min":51,"x_max":985,"o":"m 336 -294 l 246 -289 l 246 -125 l 299 -126 q 392 -101 367 -126 q 447 0 417 -75 l 349 0 l 51 649 l 318 649 l 508 171 l 718 649 l 985 649 l 604 -161 q 506 -272 563 -249 q 336 -294 450 -294 z "},"z":{"ha":944,"x_min":74,"x_max":869,"o":"m 442 163 l 869 163 l 869 0 l 74 0 l 74 167 l 503 488 l 101 488 l 101 649 l 856 649 l 856 468 l 442 163 z "},"{":{"ha":694,"x_min":103,"x_max":576,"o":"m 439 63 q 444 8 440 36 q 467 -26 449 -19 q 504 -35 485 -32 q 557 -37 524 -37 l 576 -36 l 576 -267 l 415 -271 q 239 -231 299 -271 q 179 -68 179 -190 l 179 114 q 163 195 179 165 q 103 235 147 225 l 103 447 q 162 482 144 456 q 179 554 179 508 l 179 739 q 238 899 179 860 q 414 939 297 939 l 576 935 l 576 692 l 557 692 q 458 680 469 692 q 439 593 446 668 l 439 508 q 424 406 439 443 q 357 335 408 369 q 422 263 406 303 q 439 160 439 224 l 439 63 z "},"|":{"ha":694,"x_min":214,"x_max":479,"o":"m 479 -232 l 214 -232 l 214 925 l 479 925 l 479 -232 z "},"}":{"ha":694,"x_min":118,"x_max":592,"o":"m 256 606 q 232 688 256 671 q 139 706 208 706 l 118 706 l 118 935 l 282 939 q 456 899 397 939 q 515 736 515 858 l 515 554 q 531 474 515 504 q 592 433 547 443 l 592 221 q 533 186 550 213 q 515 114 515 160 l 515 -71 q 456 -231 515 -192 q 282 -271 397 -271 l 118 -267 l 118 -24 l 139 -24 q 230 -11 204 -24 q 256 58 256 1 l 256 160 q 272 263 256 226 q 338 335 288 300 q 272 405 289 365 q 256 508 256 444 l 256 606 z "},"~":{"ha":926,"x_min":128,"x_max":803,"o":"m 347 1060 q 477 1024 390 1060 q 596 988 564 988 q 641 1009 622 988 q 678 1064 660 1031 l 803 958 q 703 793 754 835 q 586 751 651 751 q 462 787 550 751 q 335 822 374 822 q 290 801 308 822 q 253 746 271 779 l 128 851 q 229 1016 175 972 q 347 1060 283 1060 z "},"˜":{"ha":926,"x_min":128,"x_max":803,"o":"m 347 1060 q 477 1024 390 1060 q 596 988 564 988 q 641 1009 622 988 q 678 1064 660 1031 l 803 958 q 703 793 754 835 q 586 751 651 751 q 462 787 550 751 q 335 822 374 822 q 290 801 308 822 q 253 746 271 779 l 128 851 q 229 1016 175 972 q 347 1060 283 1060 z "},"Ä":{"ha":1496,"x_min":47,"x_max":1450,"o":"m 361 0 l 47 0 l 564 926 l 944 926 l 1450 0 l 1139 0 l 1051 168 l 453 168 l 361 0 m 551 360 l 949 360 l 750 726 l 551 360 m 504 1013 l 504 1153 l 697 1153 l 697 1013 l 504 1013 m 800 1013 l 800 1153 l 993 1153 l 993 1013 l 800 1013 z "},"Å":{"ha":1496,"x_min":47,"x_max":1450,"o":"m 361 0 l 47 0 l 564 926 l 944 926 l 1450 0 l 1139 0 l 1051 168 l 453 168 l 361 0 m 551 360 l 949 360 l 750 726 l 551 360 m 942 1096 q 884 1010 942 1033 q 751 986 826 986 q 616 1008 675 986 q 557 1094 557 1031 q 619 1174 557 1151 q 749 1197 681 1197 q 883 1176 824 1197 q 942 1096 942 1156 m 751 1047 q 831 1056 799 1047 q 863 1092 863 1064 q 823 1131 863 1125 q 760 1138 783 1138 l 749 1138 q 672 1128 708 1138 q 636 1089 636 1119 q 666 1056 636 1064 q 733 1047 696 1047 l 751 1047 z "},"Ç":{"ha":1388,"x_min":104,"x_max":1289,"o":"m 1289 313 q 1219 58 1289 121 q 942 -6 1149 -6 l 726 -10 l 551 -7 q 192 66 272 -7 q 113 293 113 139 l 104 488 q 171 822 104 715 q 443 928 238 928 l 707 935 q 897 933 822 935 q 1079 918 972 931 q 1232 824 1186 906 q 1278 600 1278 743 l 1004 600 q 973 685 1004 664 q 874 707 942 707 l 794 708 l 717 708 l 574 707 q 417 660 446 707 q 389 464 389 613 q 419 272 389 324 q 578 219 449 219 l 710 217 l 854 218 q 975 242 939 218 q 1011 353 1011 265 l 1288 353 l 1289 313 m 596 -290 l 550 -201 l 774 -56 l 843 -211 l 596 -290 z "},"É":{"ha":1242,"x_min":121,"x_max":1154,"o":"m 1154 926 l 1154 715 l 403 715 l 403 557 l 1104 557 l 1104 374 l 403 374 l 403 210 l 1154 210 l 1154 0 l 121 0 l 121 926 l 1154 926 m 474 1010 l 439 1103 l 750 1256 l 804 1103 l 474 1010 z "},"Ñ":{"ha":1513,"x_min":119,"x_max":1392,"o":"m 943 0 l 385 696 l 385 0 l 119 0 l 119 926 l 568 926 l 1126 232 l 1126 926 l 1392 926 l 1392 0 l 943 0 m 868 1001 q 761 1031 836 1001 q 651 1061 686 1061 q 608 1046 622 1061 q 586 1000 593 1031 l 463 1000 q 515 1145 478 1090 q 632 1200 553 1200 q 744 1172 672 1200 q 854 1143 817 1143 q 904 1159 883 1143 q 925 1203 925 1175 l 1050 1203 q 994 1061 1040 1121 q 868 1001 947 1001 z "},"Ö":{"ha":1474,"x_min":103,"x_max":1372,"o":"m 718 936 l 943 935 q 1281 853 1190 935 q 1372 525 1372 771 l 1372 481 q 1300 94 1372 192 q 935 -4 1228 -4 l 722 -8 l 633 -10 l 442 -3 q 193 70 281 -3 q 106 306 106 143 l 103 476 q 175 845 103 758 q 518 932 247 932 l 718 936 m 565 221 l 717 218 l 861 219 q 1033 245 981 219 q 1085 372 1085 271 l 1088 497 q 1080 606 1088 561 q 1049 673 1072 651 q 978 701 1025 694 q 879 708 932 708 l 599 707 q 453 688 503 707 q 395 605 403 668 q 388 500 388 542 l 388 475 l 388 438 q 417 265 388 310 q 565 221 447 221 m 493 1013 l 493 1153 l 686 1153 l 686 1013 l 493 1013 m 789 1013 l 789 1153 l 982 1153 l 982 1013 l 789 1013 z "},"Ü":{"ha":1431,"x_min":119,"x_max":1310,"o":"m 1310 397 l 1310 343 q 1197 58 1310 126 q 847 -11 1083 -11 l 617 -10 q 336 10 433 -10 q 179 108 239 29 q 119 357 119 188 l 119 925 l 401 925 l 401 440 q 435 260 401 301 q 603 218 468 218 l 729 217 l 846 218 q 994 254 961 218 q 1026 400 1026 290 l 1026 435 l 1026 925 l 1310 925 l 1310 397 m 469 1013 l 469 1153 l 663 1153 l 663 1013 l 469 1013 m 765 1013 l 765 1153 l 958 1153 l 958 1013 l 765 1013 z "},"á":{"ha":1061,"x_min":83,"x_max":960,"o":"m 396 657 l 647 663 q 878 618 797 663 q 960 438 960 574 l 960 0 l 718 0 l 718 106 q 617 7 690 28 q 429 -14 544 -14 l 385 -14 q 156 25 229 -14 q 83 206 83 64 q 140 360 83 308 q 299 413 196 413 q 408 417 353 417 l 446 417 l 517 417 q 638 404 590 417 q 718 347 686 392 l 718 418 q 693 497 718 476 q 608 517 668 517 l 497 519 l 418 517 q 367 507 383 517 q 350 465 350 497 l 111 465 q 191 617 111 576 q 396 657 271 657 m 486 139 l 507 139 q 637 147 586 139 q 703 169 688 154 q 718 217 718 185 q 687 269 718 256 q 611 282 656 282 l 474 285 q 365 273 410 285 q 321 214 321 261 q 356 153 321 168 q 446 139 390 139 l 486 139 m 383 724 l 349 817 l 660 969 l 714 817 l 383 724 z "},"à":{"ha":1061,"x_min":83,"x_max":960,"o":"m 396 657 l 647 663 q 878 618 797 663 q 960 438 960 574 l 960 0 l 718 0 l 718 106 q 617 7 690 28 q 429 -14 544 -14 l 385 -14 q 156 25 229 -14 q 83 206 83 64 q 140 360 83 308 q 299 413 196 413 q 408 417 353 417 l 446 417 l 517 417 q 638 404 590 417 q 718 347 686 392 l 718 418 q 693 497 718 476 q 608 517 668 517 l 497 519 l 418 517 q 367 507 383 517 q 350 465 350 497 l 111 465 q 191 617 111 576 q 396 657 271 657 m 486 139 l 507 139 q 637 147 586 139 q 703 169 688 154 q 718 217 718 185 q 687 269 718 256 q 611 282 656 282 l 474 285 q 365 273 410 285 q 321 214 321 261 q 356 153 321 168 q 446 139 390 139 l 486 139 m 679 724 l 349 817 l 403 969 l 714 817 l 679 724 z "},"â":{"ha":1061,"x_min":83,"x_max":960,"o":"m 396 657 l 647 663 q 878 618 797 663 q 960 438 960 574 l 960 0 l 718 0 l 718 106 q 617 7 690 28 q 429 -14 544 -14 l 385 -14 q 156 25 229 -14 q 83 206 83 64 q 140 360 83 308 q 299 413 196 413 q 408 417 353 417 l 446 417 l 517 417 q 638 404 590 417 q 718 347 686 392 l 718 418 q 693 497 718 476 q 608 517 668 517 l 497 519 l 418 517 q 367 507 383 517 q 350 465 350 497 l 111 465 q 191 617 111 576 q 396 657 271 657 m 486 139 l 507 139 q 637 147 586 139 q 703 169 688 154 q 718 217 718 185 q 687 269 718 256 q 611 282 656 282 l 474 285 q 365 273 410 285 q 321 214 321 261 q 356 153 321 168 q 446 139 390 139 l 486 139 m 772 739 l 528 826 l 285 739 l 253 822 l 531 981 l 810 822 l 772 739 z "},"ä":{"ha":1061,"x_min":83,"x_max":960,"o":"m 396 657 l 647 663 q 878 618 797 663 q 960 438 960 574 l 960 0 l 718 0 l 718 106 q 617 7 690 28 q 429 -14 544 -14 l 385 -14 q 156 25 229 -14 q 83 206 83 64 q 140 360 83 308 q 299 413 196 413 q 408 417 353 417 l 446 417 l 517 417 q 638 404 590 417 q 718 347 686 392 l 718 418 q 693 497 718 476 q 608 517 668 517 l 497 519 l 418 517 q 367 507 383 517 q 350 465 350 497 l 111 465 q 191 617 111 576 q 396 657 271 657 m 486 139 l 507 139 q 637 147 586 139 q 703 169 688 154 q 718 217 718 185 q 687 269 718 256 q 611 282 656 282 l 474 285 q 365 273 410 285 q 321 214 321 261 q 356 153 321 168 q 446 139 390 139 l 486 139 m 286 742 l 286 882 l 479 882 l 479 742 l 286 742 m 582 742 l 582 882 l 775 882 l 775 742 l 582 742 z "},"ã":{"ha":1061,"x_min":83,"x_max":960,"o":"m 396 657 l 647 663 q 878 618 797 663 q 960 438 960 574 l 960 0 l 718 0 l 718 106 q 617 7 690 28 q 429 -14 544 -14 l 385 -14 q 156 25 229 -14 q 83 206 83 64 q 140 360 83 308 q 299 413 196 413 q 408 417 353 417 l 446 417 l 517 417 q 638 404 590 417 q 718 347 686 392 l 718 418 q 693 497 718 476 q 608 517 668 517 l 497 519 l 418 517 q 367 507 383 517 q 350 465 350 497 l 111 465 q 191 617 111 576 q 396 657 271 657 m 486 139 l 507 139 q 637 147 586 139 q 703 169 688 154 q 718 217 718 185 q 687 269 718 256 q 611 282 656 282 l 474 285 q 365 273 410 285 q 321 214 321 261 q 356 153 321 168 q 446 139 390 139 l 486 139 m 643 731 q 536 760 611 731 q 426 790 461 790 q 383 775 397 790 q 361 729 368 760 l 238 729 q 290 874 253 819 q 407 929 328 929 q 519 901 447 929 q 629 872 592 872 q 679 888 658 872 q 700 932 700 904 l 825 932 q 769 790 815 850 q 643 731 722 731 z "},"å":{"ha":1061,"x_min":83,"x_max":960,"o":"m 396 657 l 647 663 q 878 618 797 663 q 960 438 960 574 l 960 0 l 718 0 l 718 106 q 617 7 690 28 q 429 -14 544 -14 l 385 -14 q 156 25 229 -14 q 83 206 83 64 q 140 360 83 308 q 299 413 196 413 q 408 417 353 417 l 446 417 l 517 417 q 638 404 590 417 q 718 347 686 392 l 718 418 q 693 497 718 476 q 608 517 668 517 l 497 519 l 418 517 q 367 507 383 517 q 350 465 350 497 l 111 465 q 191 617 111 576 q 396 657 271 657 m 486 139 l 507 139 q 637 147 586 139 q 703 169 688 154 q 718 217 718 185 q 687 269 718 256 q 611 282 656 282 l 474 285 q 365 273 410 285 q 321 214 321 261 q 356 153 321 168 q 446 139 390 139 l 486 139 m 724 851 q 666 765 724 789 q 533 742 608 742 q 398 764 457 742 q 339 850 339 786 q 401 930 339 907 q 531 953 463 953 q 665 932 606 953 q 724 851 724 911 m 533 803 q 613 811 581 803 q 644 847 644 819 q 605 887 644 881 q 542 893 565 893 l 531 893 q 454 884 490 893 q 418 844 418 875 q 448 811 418 819 q 515 803 478 803 l 533 803 z "},"ç":{"ha":1061,"x_min":93,"x_max":996,"o":"m 921 56 q 767 -1 867 11 q 551 -14 668 -14 q 293 6 385 -14 q 147 99 201 25 q 93 332 93 174 q 155 573 93 493 q 368 653 217 653 l 596 663 q 896 618 801 663 q 990 394 990 574 l 749 394 q 739 434 744 419 q 717 461 733 449 q 662 478 700 474 q 581 483 624 483 l 542 483 q 442 478 483 483 q 378 454 401 472 q 345 408 354 436 q 336 326 336 381 q 385 192 336 218 q 556 165 433 165 q 661 172 608 165 q 729 197 714 179 q 748 228 744 214 q 751 265 751 243 l 996 265 q 982 142 996 190 q 921 56 968 94 m 410 -172 l 603 -51 l 678 -162 l 458 -239 l 410 -172 z "},"é":{"ha":1046,"x_min":83,"x_max":965,"o":"m 603 -14 l 371 -6 q 144 79 204 -6 q 83 343 83 164 q 147 583 83 507 q 369 658 211 658 l 597 663 q 768 651 700 663 q 885 600 836 640 q 949 500 933 560 q 965 364 965 440 q 965 326 965 347 q 964 279 964 306 l 328 279 q 356 172 328 203 q 458 140 383 140 l 594 138 q 671 143 640 138 q 712 163 701 149 q 725 213 722 176 l 964 213 q 870 26 964 67 q 603 -14 776 -14 m 489 518 q 369 502 413 518 q 326 422 326 486 l 328 404 l 726 404 q 692 497 726 475 q 579 518 657 518 l 489 518 m 376 724 l 342 817 l 653 969 l 707 817 l 376 724 z "},"è":{"ha":1046,"x_min":83,"x_max":965,"o":"m 603 -14 l 371 -6 q 144 79 204 -6 q 83 343 83 164 q 147 583 83 507 q 369 658 211 658 l 597 663 q 768 651 700 663 q 885 600 836 640 q 949 500 933 560 q 965 364 965 440 q 965 326 965 347 q 964 279 964 306 l 328 279 q 356 172 328 203 q 458 140 383 140 l 594 138 q 671 143 640 138 q 712 163 701 149 q 725 213 722 176 l 964 213 q 870 26 964 67 q 603 -14 776 -14 m 489 518 q 369 502 413 518 q 326 422 326 486 l 328 404 l 726 404 q 692 497 726 475 q 579 518 657 518 l 489 518 m 672 724 l 342 817 l 396 969 l 707 817 l 672 724 z "},"ê":{"ha":1046,"x_min":83,"x_max":965,"o":"m 603 -14 l 371 -6 q 144 79 204 -6 q 83 343 83 164 q 147 583 83 507 q 369 658 211 658 l 597 663 q 768 651 700 663 q 885 600 836 640 q 949 500 933 560 q 965 364 965 440 q 965 326 965 347 q 964 279 964 306 l 328 279 q 356 172 328 203 q 458 140 383 140 l 594 138 q 671 143 640 138 q 712 163 701 149 q 725 213 722 176 l 964 213 q 870 26 964 67 q 603 -14 776 -14 m 489 518 q 369 502 413 518 q 326 422 326 486 l 328 404 l 726 404 q 692 497 726 475 q 579 518 657 518 l 489 518 m 765 739 l 521 826 l 278 739 l 246 822 l 524 981 l 803 822 l 765 739 z "},"ë":{"ha":1046,"x_min":83,"x_max":965,"o":"m 603 -14 l 371 -6 q 144 79 204 -6 q 83 343 83 164 q 147 583 83 507 q 369 658 211 658 l 597 663 q 768 651 700 663 q 885 600 836 640 q 949 500 933 560 q 965 364 965 440 q 965 326 965 347 q 964 279 964 306 l 328 279 q 356 172 328 203 q 458 140 383 140 l 594 138 q 671 143 640 138 q 712 163 701 149 q 725 213 722 176 l 964 213 q 870 26 964 67 q 603 -14 776 -14 m 489 518 q 369 502 413 518 q 326 422 326 486 l 328 404 l 726 404 q 692 497 726 475 q 579 518 657 518 l 489 518 m 279 742 l 279 882 l 472 882 l 472 742 l 279 742 m 575 742 l 575 882 l 768 882 l 768 742 l 575 742 z "},"í":{"ha":444,"x_min":39,"x_max":404,"o":"m 101 0 l 101 649 l 342 649 l 342 0 l 101 0 m 74 724 l 39 817 l 350 969 l 404 817 l 74 724 z "},"ì":{"ha":444,"x_min":39,"x_max":404,"o":"m 101 0 l 101 649 l 342 649 l 342 0 l 101 0 m 369 724 l 39 817 l 93 969 l 404 817 l 369 724 z "},"î":{"ha":444,"x_min":-57,"x_max":500,"o":"m 101 0 l 101 649 l 342 649 l 342 0 l 101 0 m 463 738 l 218 825 l -25 738 l -57 821 l 221 979 l 500 821 l 463 738 z "},"ï":{"ha":444,"x_min":-24,"x_max":465,"o":"m 101 0 l 101 649 l 342 649 l 342 0 l 101 0 m -24 740 l -24 881 l 169 881 l 169 740 l -24 740 m 272 740 l 272 881 l 465 881 l 465 740 l 272 740 z "},"ñ":{"ha":1085,"x_min":101,"x_max":983,"o":"m 342 515 q 442 633 372 604 q 621 663 511 663 q 901 598 818 663 q 983 340 983 533 l 983 0 l 742 0 l 742 340 q 706 451 742 426 q 575 476 671 476 l 547 476 q 391 445 440 476 q 342 306 342 414 l 342 290 l 342 0 l 101 0 l 101 649 l 342 649 l 342 515 m 654 731 q 547 760 622 731 q 438 790 472 790 q 394 775 408 790 q 372 729 379 760 l 249 729 q 301 874 264 819 q 418 929 339 929 q 531 901 458 929 q 640 872 603 872 q 690 888 669 872 q 711 932 711 904 l 836 932 q 780 790 826 850 q 654 731 733 731 z "},"ó":{"ha":1096,"x_min":90,"x_max":1019,"o":"m 536 661 l 788 651 q 969 572 918 636 q 1019 371 1019 507 l 1019 343 q 975 78 1019 146 q 733 -8 931 10 l 469 -14 q 174 40 258 -14 q 90 292 90 94 l 90 331 q 113 525 90 454 q 210 624 135 596 q 385 657 286 653 q 536 661 485 661 m 540 164 l 567 164 q 674 168 633 164 q 737 188 715 172 q 767 228 758 204 q 776 303 776 253 l 776 351 q 768 417 776 396 q 736 456 760 439 q 663 478 713 472 q 549 483 613 483 q 440 477 485 483 q 369 449 396 471 q 338 385 342 426 q 333 321 333 344 q 340 244 333 279 q 371 190 347 208 q 455 168 394 172 q 540 164 515 164 m 407 724 l 372 817 l 683 969 l 738 817 l 407 724 z "},"ò":{"ha":1096,"x_min":90,"x_max":1019,"o":"m 536 661 l 788 651 q 969 572 918 636 q 1019 371 1019 507 l 1019 343 q 975 78 1019 146 q 733 -8 931 10 l 469 -14 q 174 40 258 -14 q 90 292 90 94 l 90 331 q 113 525 90 454 q 210 624 135 596 q 385 657 286 653 q 536 661 485 661 m 540 164 l 567 164 q 674 168 633 164 q 737 188 715 172 q 767 228 758 204 q 776 303 776 253 l 776 351 q 768 417 776 396 q 736 456 760 439 q 663 478 713 472 q 549 483 613 483 q 440 477 485 483 q 369 449 396 471 q 338 385 342 426 q 333 321 333 344 q 340 244 333 279 q 371 190 347 208 q 455 168 394 172 q 540 164 515 164 m 703 724 l 372 817 l 426 969 l 738 817 l 703 724 z "},"ô":{"ha":1096,"x_min":90,"x_max":1019,"o":"m 536 661 l 788 651 q 969 572 918 636 q 1019 371 1019 507 l 1019 343 q 975 78 1019 146 q 733 -8 931 10 l 469 -14 q 174 40 258 -14 q 90 292 90 94 l 90 331 q 113 525 90 454 q 210 624 135 596 q 385 657 286 653 q 536 661 485 661 m 540 164 l 567 164 q 674 168 633 164 q 737 188 715 172 q 767 228 758 204 q 776 303 776 253 l 776 351 q 768 417 776 396 q 736 456 760 439 q 663 478 713 472 q 549 483 613 483 q 440 477 485 483 q 369 449 396 471 q 338 385 342 426 q 333 321 333 344 q 340 244 333 279 q 371 190 347 208 q 455 168 394 172 q 540 164 515 164 m 796 738 l 551 825 l 308 738 l 276 821 l 554 979 l 833 821 l 796 738 z "},"ö":{"ha":1096,"x_min":90,"x_max":1019,"o":"m 536 661 l 788 651 q 969 572 918 636 q 1019 371 1019 507 l 1019 343 q 975 78 1019 146 q 733 -8 931 10 l 469 -14 q 174 40 258 -14 q 90 292 90 94 l 90 331 q 113 525 90 454 q 210 624 135 596 q 385 657 286 653 q 536 661 485 661 m 540 164 l 567 164 q 674 168 633 164 q 737 188 715 172 q 767 228 758 204 q 776 303 776 253 l 776 351 q 768 417 776 396 q 736 456 760 439 q 663 478 713 472 q 549 483 613 483 q 440 477 485 483 q 369 449 396 471 q 338 385 342 426 q 333 321 333 344 q 340 244 333 279 q 371 190 347 208 q 455 168 394 172 q 540 164 515 164 m 310 740 l 310 881 l 503 881 l 503 740 l 310 740 m 606 740 l 606 881 l 799 881 l 799 740 l 606 740 z "},"õ":{"ha":1096,"x_min":90,"x_max":1019,"o":"m 536 661 l 788 651 q 969 572 918 636 q 1019 371 1019 507 l 1019 343 q 975 78 1019 146 q 733 -8 931 10 l 469 -14 q 174 40 258 -14 q 90 292 90 94 l 90 331 q 113 525 90 454 q 210 624 135 596 q 385 657 286 653 q 536 661 485 661 m 540 164 l 567 164 q 674 168 633 164 q 737 188 715 172 q 767 228 758 204 q 776 303 776 253 l 776 351 q 768 417 776 396 q 736 456 760 439 q 663 478 713 472 q 549 483 613 483 q 440 477 485 483 q 369 449 396 471 q 338 385 342 426 q 333 321 333 344 q 340 244 333 279 q 371 190 347 208 q 455 168 394 172 q 540 164 515 164 m 667 731 q 560 760 635 731 q 450 790 485 790 q 406 775 421 790 q 385 729 392 760 l 261 729 q 314 874 276 819 q 431 929 351 929 q 543 901 471 929 q 653 872 615 872 q 703 888 682 872 q 724 932 724 904 l 849 932 q 792 790 839 850 q 667 731 746 731 z "},"ú":{"ha":1093,"x_min":103,"x_max":992,"o":"m 751 0 l 751 133 q 648 16 729 46 q 456 -14 567 -14 q 189 49 275 -14 q 103 288 103 113 l 103 649 l 343 649 l 343 310 q 389 191 343 217 q 538 165 435 165 q 701 202 650 165 q 751 344 751 239 l 751 364 l 751 649 l 992 649 l 992 0 l 751 0 m 400 724 l 365 817 l 676 969 l 731 817 l 400 724 z "},"ù":{"ha":1093,"x_min":103,"x_max":992,"o":"m 751 0 l 751 133 q 648 16 729 46 q 456 -14 567 -14 q 189 49 275 -14 q 103 288 103 113 l 103 649 l 343 649 l 343 310 q 389 191 343 217 q 538 165 435 165 q 701 202 650 165 q 751 344 751 239 l 751 364 l 751 649 l 992 649 l 992 0 l 751 0 m 696 724 l 365 817 l 419 969 l 731 817 l 696 724 z "},"û":{"ha":1093,"x_min":103,"x_max":992,"o":"m 751 0 l 751 133 q 648 16 729 46 q 456 -14 567 -14 q 189 49 275 -14 q 103 288 103 113 l 103 649 l 343 649 l 343 310 q 389 191 343 217 q 538 165 435 165 q 701 202 650 165 q 751 344 751 239 l 751 364 l 751 649 l 992 649 l 992 0 l 751 0 m 789 738 l 544 825 l 301 738 l 269 821 l 547 979 l 826 821 l 789 738 z "},"ü":{"ha":1093,"x_min":103,"x_max":992,"o":"m 751 0 l 751 133 q 648 16 729 46 q 456 -14 567 -14 q 189 49 275 -14 q 103 288 103 113 l 103 649 l 343 649 l 343 310 q 389 191 343 217 q 538 165 435 165 q 701 202 650 165 q 751 344 751 239 l 751 364 l 751 649 l 992 649 l 992 0 l 751 0 m 303 740 l 303 881 l 496 881 l 496 740 l 303 740 m 599 740 l 599 881 l 792 881 l 792 740 l 599 740 z "},"†":{"ha":1324,"x_min":132,"x_max":1192,"o":"m 1192 653 l 1192 475 l 788 475 l 788 -300 l 536 -300 l 536 475 l 132 475 l 132 653 l 536 653 l 536 926 l 788 926 l 788 653 l 1192 653 z "},"°":{"ha":694,"x_min":118,"x_max":576,"o":"m 118 699 q 182 869 118 800 q 347 939 246 939 q 510 871 443 939 q 576 706 576 803 q 508 545 576 611 q 344 479 439 479 q 187 544 256 479 q 118 699 118 608 m 217 707 q 255 616 217 656 q 344 576 293 576 q 438 615 397 576 q 478 707 478 654 q 440 801 478 761 q 347 842 403 842 q 256 801 294 842 q 217 707 217 761 z "},"¢":{"ha":1324,"x_min":214,"x_max":1114,"o":"m 864 436 l 1111 436 q 1024 215 1111 265 q 744 164 938 164 l 732 164 l 732 54 l 606 54 l 606 164 q 296 227 378 164 q 214 513 214 290 q 299 771 214 700 q 575 842 385 842 l 606 840 l 606 936 l 732 936 l 732 840 q 1015 798 915 840 q 1114 599 1114 756 l 1114 564 l 874 564 q 831 636 865 621 q 732 651 797 651 l 732 349 q 825 368 786 349 q 864 436 864 388 m 606 349 l 606 651 q 492 621 524 651 q 460 506 460 590 q 485 387 460 414 q 606 349 511 360 z "},"£":{"ha":1324,"x_min":65,"x_max":1258,"o":"m 108 0 l 108 201 q 192 240 172 201 q 211 347 211 278 l 65 347 l 65 504 l 208 504 q 265 838 208 749 q 543 928 322 928 l 722 931 l 794 931 q 976 925 901 931 q 1120 897 1051 919 q 1215 811 1189 874 q 1242 649 1242 749 l 1240 610 l 979 610 q 945 702 979 681 q 833 724 911 724 l 683 726 q 607 725 636 726 q 541 715 578 724 q 488 684 504 707 q 472 622 472 661 l 474 544 l 472 504 l 858 504 l 858 347 l 475 347 q 454 258 475 283 q 368 204 433 233 l 1258 204 l 1258 0 l 108 0 z "},"§":{"ha":1324,"x_min":128,"x_max":1196,"o":"m 771 757 l 654 758 l 549 757 q 442 744 481 757 q 404 675 404 731 q 439 610 404 626 q 528 593 474 593 l 976 542 q 1143 485 1090 526 q 1196 338 1196 443 q 1174 228 1196 276 q 1100 157 1151 179 q 1175 95 1157 138 q 1193 -17 1193 53 q 1126 -245 1193 -187 q 879 -303 1058 -303 l 558 -310 l 368 -304 q 192 -263 257 -304 q 128 -115 128 -222 l 128 -36 l 379 -36 q 407 -110 379 -94 q 497 -126 435 -126 l 654 -131 l 800 -128 q 904 -109 865 -128 q 943 -32 943 -90 q 857 50 943 39 l 317 119 q 142 326 142 143 q 164 426 142 392 q 246 486 186 461 q 167 556 183 510 q 150 683 150 601 q 220 878 150 826 q 436 929 290 929 l 664 935 l 854 935 q 1091 884 1022 935 q 1160 674 1160 833 l 911 674 q 874 742 911 728 q 771 757 838 757 m 529 251 l 910 203 q 950 263 939 238 q 961 311 961 288 q 928 372 961 354 q 843 396 896 389 l 456 443 q 422 395 433 419 q 410 340 410 371 q 440 276 410 292 q 529 251 471 260 z "},"•":{"ha":833,"x_min":275,"x_max":544,"o":"m 544 397 q 506 303 544 342 q 408 264 467 264 q 314 303 353 264 q 275 397 275 342 q 314 492 275 453 q 408 531 353 531 q 504 492 464 531 q 544 397 544 453 z "},"¶":{"ha":910,"x_min":90,"x_max":778,"o":"m 340 447 q 160 511 229 447 q 90 685 90 575 q 178 874 90 821 q 408 926 265 926 l 778 926 l 778 832 l 711 832 l 711 -157 l 589 -157 l 589 832 l 478 832 l 478 -157 l 356 -157 l 356 449 l 340 447 z "},"ß":{"ha":1124,"x_min":101,"x_max":1040,"o":"m 347 936 q 473 946 397 943 q 617 949 549 949 q 875 912 775 949 q 975 744 975 875 q 946 622 975 660 q 835 561 917 585 q 992 488 943 546 q 1040 319 1040 431 q 962 67 1040 149 q 710 -14 883 -14 q 549 6 618 -14 q 449 71 479 25 q 413 160 419 117 q 406 257 406 203 l 613 257 q 628 188 613 206 q 688 171 644 171 q 774 208 757 171 q 792 326 792 246 q 765 449 792 414 q 654 483 738 483 l 454 483 l 454 649 l 647 649 q 711 660 689 649 q 733 714 733 672 q 711 760 733 749 q 660 775 689 772 q 603 778 632 778 l 524 778 q 386 751 425 778 q 347 628 347 725 l 347 0 l 101 0 l 101 668 q 162 858 101 793 q 347 936 222 922 z "},"®":{"ha":1058,"x_min":47,"x_max":1010,"o":"m 747 589 q 664 457 747 494 q 735 354 725 432 q 753 206 744 276 l 608 206 q 592 324 596 233 q 478 414 589 414 l 478 206 l 326 206 l 326 735 l 551 735 q 692 701 636 735 q 747 589 747 668 m 521 500 q 597 576 597 500 q 526 643 597 643 l 478 643 l 478 500 l 521 500 m 532 -21 q 190 121 333 -21 q 47 463 47 263 q 189 804 47 663 q 532 946 331 946 q 869 803 729 946 q 1010 463 1010 660 q 870 122 1010 264 q 532 -21 731 -21 m 531 88 q 787 199 682 88 q 892 463 892 311 q 787 726 892 614 q 531 838 682 838 q 272 727 378 838 q 165 463 165 617 q 272 198 165 308 q 531 88 378 88 z "},"©":{"ha":1058,"x_min":47,"x_max":1010,"o":"m 267 465 q 340 664 267 583 q 532 744 414 744 q 699 688 626 744 q 771 542 771 632 l 656 542 q 610 596 644 579 q 531 613 575 613 q 448 568 476 613 q 419 467 419 524 q 447 364 419 407 q 531 321 475 321 q 616 342 582 321 q 658 411 650 364 l 775 411 q 705 251 775 311 q 531 190 635 190 q 339 268 411 190 q 267 465 267 346 m 532 -21 q 190 121 333 -21 q 47 463 47 263 q 189 804 47 663 q 532 946 331 946 q 869 803 729 946 q 1010 463 1010 660 q 870 122 1010 264 q 532 -21 731 -21 m 531 88 q 787 199 682 88 q 892 463 892 311 q 787 726 892 614 q 531 838 682 838 q 272 727 378 838 q 165 463 165 617 q 272 198 165 308 q 531 88 378 88 z "},"™":{"ha":1904,"x_min":29,"x_max":1822,"o":"m 286 371 l 286 781 l 29 781 l 29 926 l 728 926 l 728 781 l 472 781 l 472 371 l 286 371 m 1647 371 l 1647 772 l 1403 371 l 1256 371 l 1014 772 l 1014 371 l 838 371 l 838 926 l 1125 926 l 1332 571 l 1538 926 l 1822 926 l 1822 371 l 1647 371 z "},"´":{"ha":694,"x_min":165,"x_max":531,"o":"m 200 724 l 165 817 l 476 969 l 531 817 l 200 724 z "},"¨":{"ha":694,"x_min":103,"x_max":592,"o":"m 103 740 l 103 881 l 296 881 l 296 740 l 103 740 m 399 740 l 399 881 l 592 881 l 592 740 l 399 740 z "},"Æ":{"ha":2075,"x_min":28,"x_max":1988,"o":"m 1940 557 l 1940 374 l 1239 374 l 1239 210 l 1988 210 l 1988 0 l 975 0 l 975 168 l 474 168 l 361 0 l 28 0 l 647 926 l 1988 926 l 1988 715 l 1239 715 l 1239 557 l 1940 557 m 829 715 l 593 357 l 975 357 l 975 715 l 829 715 z "},"Ø":{"ha":1474,"x_min":35,"x_max":1439,"o":"m 1439 776 l 1353 726 l 1363 685 q 1369 606 1367 653 q 1372 481 1372 558 q 1299 95 1372 194 q 935 -4 1225 -4 l 721 -10 l 474 -6 q 322 10 392 -6 q 203 69 253 26 l 35 -28 l 35 142 l 124 193 q 108 256 113 221 q 104 326 104 292 l 104 347 l 103 475 q 174 846 103 760 q 518 932 246 932 l 717 935 l 943 933 q 1057 932 1038 933 q 1148 922 1076 931 q 1279 857 1219 913 l 1439 950 l 1439 776 m 599 706 q 500 700 542 706 q 431 669 458 694 q 394 606 403 644 q 386 510 386 567 q 387 433 386 469 q 392 351 388 396 l 393 346 l 996 697 q 930 706 964 704 q 844 708 896 708 l 599 706 m 533 221 l 717 217 l 842 218 q 1043 254 999 218 q 1088 438 1088 290 l 1083 575 l 485 228 l 533 221 z "},"±":{"ha":694,"x_min":4,"x_max":689,"o":"m 283 854 l 408 854 l 408 572 l 689 572 l 689 453 l 408 453 l 408 183 l 283 183 l 283 453 l 4 453 l 4 572 l 283 572 l 283 854 m 689 8 l 4 8 l 4 128 l 689 128 l 689 8 z "},"¥":{"ha":1389,"x_min":28,"x_max":1361,"o":"m 1361 926 l 1097 619 l 1293 619 l 1293 522 l 1014 522 l 906 397 l 1293 397 l 1293 297 l 840 297 l 840 0 l 557 0 l 557 297 l 99 297 l 99 397 l 492 397 l 383 522 l 99 522 l 99 619 l 299 619 l 28 926 l 383 926 l 697 544 l 1008 926 l 1361 926 z "},"µ":{"ha":844,"x_min":76,"x_max":768,"o":"m 317 665 l 317 332 q 346 206 317 239 q 426 172 375 172 q 508 219 488 172 q 528 333 528 265 l 528 665 l 768 665 l 768 0 l 528 0 l 528 74 q 487 10 510 33 q 426 -12 464 -12 q 364 8 392 -12 q 317 61 336 28 l 317 -240 l 76 -240 l 76 665 l 317 665 z "},"ª":{"ha":576,"x_min":22,"x_max":586,"o":"m 218 924 l 372 926 q 509 900 461 926 q 557 792 557 874 l 557 529 l 411 529 l 411 593 q 351 533 396 546 q 239 521 306 521 q 81 542 132 521 q 31 653 31 564 q 65 744 31 713 q 160 776 100 776 l 249 779 l 293 779 q 364 772 336 779 q 411 738 392 765 l 411 781 q 406 816 411 803 q 386 834 400 829 q 330 840 372 839 q 279 842 288 842 l 232 839 q 201 833 211 839 q 190 808 190 828 l 47 808 q 97 898 47 872 q 218 924 146 924 m 372 618 q 411 660 411 624 q 392 690 411 682 q 347 699 372 699 l 267 700 q 215 697 233 700 q 185 685 197 693 q 174 658 174 676 q 193 622 174 631 q 247 613 213 613 l 281 613 q 338 613 308 613 q 372 618 361 617 m 586 461 l 586 347 l 22 347 l 22 461 l 586 461 z "},"º":{"ha":604,"x_min":18,"x_max":586,"o":"m 286 928 q 372 925 311 928 q 438 922 432 922 q 545 873 514 913 q 576 751 576 833 l 576 715 q 565 611 576 651 q 522 555 554 571 q 462 533 490 539 q 404 526 433 526 q 326 525 365 526 q 247 522 286 524 q 71 556 124 522 q 18 706 18 590 l 18 729 l 18 736 q 74 898 18 868 q 286 928 129 928 m 296 629 q 367 632 340 629 q 408 646 393 635 q 427 672 424 657 q 431 711 431 686 l 431 742 q 427 778 431 764 q 408 803 424 793 q 362 817 393 814 q 293 821 331 821 q 229 817 258 821 q 185 801 200 813 q 167 769 171 789 q 164 724 164 750 q 167 677 164 697 q 184 647 171 657 q 223 633 197 638 q 296 629 249 629 m 586 461 l 586 347 l 22 347 l 22 461 l 586 461 z "},"æ":{"ha":1676,"x_min":90,"x_max":1600,"o":"m 1104 133 l 1226 131 q 1321 144 1285 131 q 1357 206 1357 157 l 1599 206 q 1488 24 1586 63 q 1213 -14 1389 -14 l 1142 -14 q 998 -8 1049 -14 q 897 15 947 -1 q 818 94 847 32 q 776 41 800 61 q 708 8 751 21 q 611 -10 664 -6 q 474 -14 558 -14 l 449 -14 l 428 -14 q 264 -2 346 -14 q 136 57 182 10 q 90 194 90 104 q 140 356 90 304 q 294 408 189 408 l 428 413 l 542 411 q 656 402 621 411 q 729 346 692 393 l 729 421 q 699 494 729 476 q 607 511 668 511 l 483 514 q 417 512 439 514 q 384 503 394 510 q 370 488 374 496 q 364 467 367 481 l 118 467 q 196 623 118 583 q 407 663 274 663 l 547 663 q 622 662 585 663 q 710 656 658 661 q 798 631 761 651 q 854 560 835 611 q 960 644 896 626 q 1129 663 1025 663 l 1183 663 q 1525 594 1450 663 q 1600 379 1600 526 l 1599 275 l 963 275 q 991 162 963 190 q 1104 133 1019 133 m 1201 508 l 1164 508 q 994 486 1022 508 q 958 400 967 464 l 1358 400 q 1353 452 1358 432 q 1328 485 1347 472 q 1275 503 1308 499 q 1201 508 1242 508 m 513 136 l 550 136 q 607 138 578 136 q 665 143 636 139 q 710 161 693 147 q 728 201 728 175 q 703 255 728 235 q 615 275 679 275 l 444 275 q 358 258 383 275 q 333 211 333 240 q 365 152 333 167 q 447 138 396 138 l 513 136 z "},"ø":{"ha":1096,"x_min":33,"x_max":1063,"o":"m 1063 549 l 996 511 q 1009 446 1006 481 q 1013 365 1013 411 l 1013 343 q 966 67 1013 143 q 726 -8 919 -8 l 528 -14 l 458 -14 q 281 -3 351 -14 q 161 46 210 8 l 33 -26 l 33 104 l 99 140 q 86 202 89 168 q 83 274 83 236 l 83 353 q 106 530 83 464 q 204 624 129 596 q 378 657 279 653 q 528 661 478 661 q 694 658 621 661 q 830 644 768 654 q 929 604 892 635 l 1063 679 l 1063 549 m 361 447 q 332 398 338 429 q 326 321 326 367 q 331 260 326 289 l 699 468 q 626 480 665 476 q 542 483 586 483 q 423 475 461 483 q 361 447 385 467 m 546 164 l 563 164 q 681 173 628 164 q 751 215 733 182 q 769 304 769 249 l 769 328 l 769 353 q 769 374 769 363 q 767 393 767 388 l 386 179 q 460 167 419 171 q 546 164 501 164 z "},"¿":{"ha":1106,"x_min":57,"x_max":994,"o":"m 718 647 l 718 389 l 442 389 l 442 647 l 718 647 m 400 67 q 322 40 354 60 q 290 -22 290 19 q 329 -87 290 -67 q 417 -107 368 -107 l 508 -110 l 631 -107 q 725 -83 696 -107 q 754 0 754 -60 q 751 39 754 26 l 994 39 l 994 -4 q 974 -158 994 -96 q 889 -247 953 -219 q 733 -281 825 -274 q 529 -287 642 -287 q 386 -285 453 -287 q 232 -271 319 -282 q 101 -198 144 -260 q 57 -25 57 -136 l 57 4 q 65 103 57 64 q 108 180 72 142 q 301 245 143 218 q 460 321 460 272 l 697 321 q 644 127 697 161 q 400 67 592 93 z "},"¡":{"ha":454,"x_min":90,"x_max":369,"o":"m 90 649 l 367 649 l 367 390 l 90 390 l 90 649 m 108 269 l 354 269 l 369 -278 l 96 -278 l 108 269 z "},"¬":{"ha":694,"x_min":46,"x_max":647,"o":"m 46 183 l 46 414 l 647 414 l 647 0 l 392 0 l 392 183 l 46 183 z "},"ƒ":{"ha":1324,"x_min":208,"x_max":1117,"o":"m 361 -190 l 208 -185 l 236 -28 l 329 -29 q 444 -3 417 -29 q 488 110 472 24 l 560 519 l 406 519 l 432 672 l 588 672 q 607 799 597 735 q 656 928 621 869 q 771 1004 690 986 q 964 1022 851 1022 l 1117 1017 l 1089 860 l 996 861 q 888 842 924 861 q 843 758 853 822 l 828 672 l 1056 672 l 1029 519 l 801 519 l 724 78 q 618 -140 693 -90 q 361 -190 543 -190 z "},"«":{"ha":879,"x_min":46,"x_max":796,"o":"m 417 97 l 246 3 l 46 338 l 246 681 l 418 583 l 274 338 l 417 97 m 796 97 l 625 3 l 425 338 l 625 681 l 796 583 l 651 338 l 796 97 z "},"»":{"ha":879,"x_min":83,"x_max":833,"o":"m 833 338 l 633 3 l 463 97 l 607 338 l 463 583 l 633 681 l 833 338 m 456 338 l 254 3 l 83 97 l 228 338 l 83 583 l 254 681 l 456 338 z "},"…":{"ha":1383,"x_min":92,"x_max":1290,"o":"m 92 0 l 92 258 l 368 258 l 368 0 l 92 0 m 553 0 l 553 258 l 829 258 l 829 0 l 553 0 m 1014 0 l 1014 258 l 1290 258 l 1290 0 l 1014 0 z "}," ":{"ha":347,"x_min":0,"x_max":0,"o":""},"À":{"ha":1496,"x_min":47,"x_max":1450,"o":"m 361 0 l 47 0 l 564 926 l 944 926 l 1450 0 l 1139 0 l 1051 168 l 453 168 l 361 0 m 551 360 l 949 360 l 750 726 l 551 360 m 897 1010 l 567 1103 l 621 1256 l 932 1103 l 897 1010 z "},"Ã":{"ha":1496,"x_min":47,"x_max":1450,"o":"m 361 0 l 47 0 l 564 926 l 944 926 l 1450 0 l 1139 0 l 1051 168 l 453 168 l 361 0 m 551 360 l 949 360 l 750 726 l 551 360 m 861 1001 q 754 1031 829 1001 q 644 1061 679 1061 q 601 1046 615 1061 q 579 1000 586 1031 l 456 1000 q 508 1145 471 1090 q 625 1200 546 1200 q 738 1172 665 1200 q 847 1143 810 1143 q 897 1159 876 1143 q 918 1203 918 1175 l 1043 1203 q 987 1061 1033 1121 q 861 1001 940 1001 z "},"Õ":{"ha":1474,"x_min":103,"x_max":1372,"o":"m 718 936 l 943 935 q 1281 853 1190 935 q 1372 525 1372 771 l 1372 481 q 1300 94 1372 192 q 935 -4 1228 -4 l 722 -8 l 633 -10 l 442 -3 q 193 70 281 -3 q 106 306 106 143 l 103 476 q 175 845 103 758 q 518 932 247 932 l 718 936 m 565 221 l 717 218 l 861 219 q 1033 245 981 219 q 1085 372 1085 271 l 1088 497 q 1080 606 1088 561 q 1049 673 1072 651 q 978 701 1025 694 q 879 708 932 708 l 599 707 q 453 688 503 707 q 395 605 403 668 q 388 500 388 542 l 388 475 l 388 438 q 417 265 388 310 q 565 221 447 221 m 850 1001 q 743 1031 818 1001 q 633 1061 668 1061 q 590 1046 604 1061 q 568 1000 575 1031 l 444 1000 q 497 1145 460 1090 q 614 1200 535 1200 q 726 1172 654 1200 q 836 1143 799 1143 q 886 1159 865 1143 q 907 1203 907 1175 l 1032 1203 q 976 1061 1022 1121 q 850 1001 929 1001 z "},"Œ":{"ha":2174,"x_min":101,"x_max":2086,"o":"m 2040 557 l 2040 374 l 1338 374 l 1338 210 l 2086 210 l 2086 0 l 1075 0 l 1075 103 q 976 16 1038 39 q 828 -7 914 -7 l 622 -10 l 593 -10 q 373 3 499 -10 q 177 86 247 15 q 107 310 107 157 q 104 399 107 336 q 101 467 101 461 q 174 828 101 724 q 486 933 246 933 l 725 935 q 793 935 760 935 q 886 929 826 935 q 990 902 946 924 q 1075 821 1035 881 l 1075 925 l 2086 925 l 2086 715 l 1338 715 l 1338 557 l 2040 557 m 508 226 l 708 217 l 846 218 q 1038 260 1001 218 q 1074 460 1074 301 l 1074 476 q 1072 540 1074 513 q 1065 603 1071 568 q 1042 658 1058 638 q 996 687 1025 679 q 940 696 967 694 q 879 697 913 697 l 719 700 l 529 697 q 412 650 438 689 q 386 504 386 611 l 386 465 l 386 438 q 407 288 386 339 q 508 226 428 238 z "},"œ":{"ha":1719,"x_min":88,"x_max":1640,"o":"m 1132 138 l 1256 133 q 1320 137 1289 133 q 1376 152 1351 140 q 1401 204 1401 164 l 1639 204 q 1566 45 1639 104 q 1301 -14 1493 -14 l 1067 -8 q 953 18 994 -1 q 883 92 913 38 q 792 10 847 33 q 657 -12 738 -12 l 463 -14 q 240 13 328 -14 q 124 103 151 40 q 92 213 97 167 q 88 310 88 258 q 131 561 88 485 q 281 649 174 638 q 438 661 389 660 q 556 663 488 663 l 589 663 q 699 659 653 663 q 799 640 744 656 q 883 564 854 625 q 983 644 917 624 q 1139 664 1050 664 l 1219 663 q 1457 647 1374 663 q 1590 566 1540 631 q 1640 361 1640 501 l 1639 281 l 1003 281 q 1030 169 1003 200 q 1132 138 1057 138 m 1250 519 l 1204 519 q 1142 519 1172 519 q 1060 508 1113 518 q 999 424 1007 497 l 997 406 l 1401 406 q 1395 460 1401 438 q 1370 497 1389 483 q 1319 515 1351 510 q 1250 519 1288 519 m 560 165 q 731 190 686 165 q 775 325 775 215 q 740 458 775 425 q 596 490 704 490 l 510 490 q 419 485 456 490 q 359 462 382 479 q 330 414 336 444 q 324 347 324 383 l 324 338 q 368 194 324 222 q 535 165 413 165 l 560 165 z "},"–":{"ha":1324,"x_min":218,"x_max":1104,"o":"m 218 217 l 218 453 l 1104 453 l 1104 217 l 218 217 z "},"—":{"ha":1442,"x_min":28,"x_max":1414,"o":"m 28 217 l 28 453 l 1414 453 l 1414 217 l 28 217 z "},"“":{"ha":817,"x_min":76,"x_max":769,"o":"m 692 928 q 730 928 711 928 q 769 924 749 928 l 769 778 l 740 781 q 672 755 692 781 q 653 679 653 729 l 731 679 l 731 422 l 451 422 l 451 679 q 503 873 451 818 q 692 928 556 928 m 317 928 q 355 928 336 928 q 394 924 374 928 l 394 778 l 365 781 q 297 755 317 781 q 278 679 278 729 l 356 679 l 356 422 l 76 422 l 76 679 q 128 873 76 818 q 317 928 181 928 z "},"”":{"ha":822,"x_min":47,"x_max":740,"o":"m 129 421 l 108 421 q 47 425 76 421 l 47 569 l 76 567 q 144 592 125 567 q 164 668 164 618 l 86 668 l 86 926 l 365 926 l 365 668 q 315 478 365 535 q 129 421 265 421 m 504 421 l 483 421 q 422 425 451 421 l 422 569 l 451 567 q 519 592 500 567 q 539 668 539 618 l 461 668 l 461 926 l 740 926 l 740 668 q 697 476 740 531 q 504 421 653 421 z "},"‘":{"ha":442,"x_min":76,"x_max":394,"o":"m 317 928 q 355 928 336 928 q 394 924 374 928 l 394 778 l 365 781 q 297 755 317 781 q 278 679 278 729 l 356 679 l 356 422 l 76 422 l 76 679 q 128 873 76 818 q 317 928 181 928 z "},"’":{"ha":447,"x_min":47,"x_max":365,"o":"m 129 421 l 108 421 q 47 425 76 421 l 47 569 l 76 567 q 144 592 125 567 q 164 668 164 618 l 86 668 l 86 926 l 365 926 l 365 668 q 315 478 365 535 q 129 421 265 421 z "},"÷":{"ha":694,"x_min":4,"x_max":689,"o":"m 689 450 l 4 450 l 4 569 l 689 569 l 689 450 m 347 653 q 285 679 311 653 q 258 742 258 706 q 285 804 258 778 q 347 831 311 831 q 410 804 383 831 q 436 742 436 778 q 410 679 436 706 q 347 653 383 653 m 346 188 q 283 214 310 188 q 257 276 257 240 q 283 339 257 313 q 346 365 310 365 q 410 339 383 365 q 436 276 436 313 q 410 214 436 240 q 346 188 383 188 z "},"ÿ":{"ha":1031,"x_min":51,"x_max":985,"o":"m 336 -294 l 246 -289 l 246 -125 l 299 -126 q 392 -101 367 -126 q 447 0 417 -75 l 349 0 l 51 649 l 318 649 l 508 171 l 718 649 l 985 649 l 604 -161 q 506 -272 563 -249 q 336 -294 450 -294 m 271 742 l 271 882 l 464 882 l 464 742 l 271 742 m 567 742 l 567 882 l 760 882 l 760 742 l 567 742 z "},"Ÿ":{"ha":1389,"x_min":28,"x_max":1361,"o":"m 1361 926 l 840 322 l 840 0 l 557 0 l 557 322 l 28 926 l 383 926 l 697 544 l 1008 926 l 1361 926 m 450 1013 l 450 1153 l 643 1153 l 643 1013 l 450 1013 m 746 1013 l 746 1153 l 939 1153 l 939 1013 l 746 1013 z "},"¤":{"ha":1013,"x_min":43,"x_max":969,"o":"m 143 472 q 156 561 143 517 q 193 650 169 606 l 44 799 l 179 933 l 331 782 q 422 815 374 803 q 515 826 469 826 q 596 816 558 826 q 679 783 633 806 l 829 932 l 963 797 l 818 653 q 856 565 842 611 q 869 471 869 518 q 858 382 869 424 q 825 294 847 340 l 969 150 l 836 15 l 693 158 q 503 107 603 107 q 413 119 456 107 q 321 158 371 132 l 176 17 l 43 149 l 188 294 q 143 472 143 381 m 507 335 q 603 375 564 335 q 642 471 642 415 q 603 567 642 526 q 507 607 564 607 q 413 567 453 607 q 372 471 372 526 q 411 375 372 415 q 507 335 450 335 z "},"‹":{"ha":501,"x_min":46,"x_max":418,"o":"m 417 97 l 246 3 l 46 338 l 246 681 l 418 583 l 274 338 l 417 97 z "},"›":{"ha":501,"x_min":83,"x_max":456,"o":"m 456 338 l 254 3 l 83 97 l 228 338 l 83 583 l 254 681 l 456 338 z "},"‡":{"ha":1324,"x_min":132,"x_max":1192,"o":"m 1192 653 l 1192 475 l 788 475 l 788 165 l 1192 165 l 1192 -12 l 788 -12 l 788 -300 l 536 -300 l 536 -12 l 132 -12 l 132 165 l 536 165 l 536 475 l 132 475 l 132 653 l 536 653 l 536 926 l 788 926 l 788 653 l 1192 653 z "},"·":{"ha":379,"x_min":65,"x_max":314,"o":"m 65 217 l 65 474 l 314 474 l 314 217 l 65 217 z "},"∙":{"ha":379,"x_min":65,"x_max":314,"o":"m 65 217 l 65 474 l 314 474 l 314 217 l 65 217 z "},"‚":{"ha":447,"x_min":47,"x_max":365,"o":"m 129 -247 l 108 -247 q 47 -243 76 -247 l 47 -99 l 76 -101 q 144 -76 125 -101 q 164 0 164 -50 l 86 0 l 86 258 l 365 258 l 365 0 q 315 -191 365 -135 q 129 -247 264 -247 z "},"„":{"ha":822,"x_min":47,"x_max":740,"o":"m 129 -247 l 108 -247 q 47 -243 76 -247 l 47 -99 l 76 -101 q 144 -76 125 -101 q 164 0 164 -50 l 86 0 l 86 258 l 365 258 l 365 0 q 315 -191 365 -135 q 129 -247 264 -247 m 504 -247 l 483 -247 q 422 -243 451 -247 l 422 -99 l 451 -101 q 519 -76 500 -101 q 539 0 539 -50 l 461 0 l 461 258 l 740 258 l 740 0 q 691 -192 740 -136 q 504 -247 642 -247 z "},"‰":{"ha":2185,"x_min":58,"x_max":2139,"o":"m 422 929 q 606 889 558 929 q 654 713 654 849 l 654 671 q 618 504 654 547 q 428 461 582 461 l 271 460 q 103 499 149 460 q 58 658 58 539 l 58 696 q 95 881 58 835 q 267 926 132 926 l 422 929 m 358 579 q 485 594 461 579 q 508 694 508 610 q 490 790 508 765 q 403 815 471 815 l 313 814 q 260 812 276 814 q 231 801 244 810 q 210 772 217 792 q 204 711 204 751 l 204 694 q 219 601 204 622 q 301 579 235 579 l 358 579 m 439 0 l 311 0 l 1082 926 l 1210 926 l 439 0 m 1231 467 q 1416 424 1369 467 q 1463 250 1463 382 l 1463 203 q 1451 92 1463 138 q 1411 30 1440 47 q 1341 5 1382 13 q 1225 -3 1300 -3 l 1088 -4 q 917 29 968 -4 q 867 196 867 63 l 867 233 q 903 418 867 372 q 1075 464 940 464 l 1231 467 m 1167 115 l 1231 118 q 1303 140 1290 118 q 1317 225 1317 163 l 1317 265 q 1312 310 1317 292 q 1292 337 1307 328 q 1258 349 1276 346 q 1211 353 1239 353 l 1121 351 q 1069 349 1085 351 q 1039 338 1053 347 q 1019 309 1025 329 q 1013 249 1013 289 l 1013 232 q 1027 138 1013 158 q 1111 117 1042 117 l 1167 115 m 1907 467 q 2092 424 2046 467 q 2139 250 2139 382 l 2139 203 q 2128 92 2139 138 q 2088 30 2117 47 q 2017 5 2058 13 q 1901 -3 1976 -3 l 1764 -4 q 1659 3 1693 -4 q 1594 29 1625 11 q 1553 90 1564 47 q 1543 196 1543 132 l 1543 233 q 1580 418 1543 372 q 1751 464 1617 464 l 1907 467 m 1843 115 l 1907 118 q 1980 140 1967 118 q 1993 225 1993 163 l 1993 264 q 1988 309 1993 290 q 1967 337 1983 328 q 1933 349 1951 346 q 1888 353 1914 353 l 1797 351 q 1745 349 1761 351 q 1715 338 1729 347 q 1695 309 1701 329 q 1689 249 1689 289 l 1689 232 q 1703 138 1689 158 q 1788 117 1718 117 l 1843 115 z "},"Â":{"ha":1496,"x_min":47,"x_max":1450,"o":"m 361 0 l 47 0 l 564 926 l 944 926 l 1450 0 l 1139 0 l 1051 168 l 453 168 l 361 0 m 551 360 l 949 360 l 750 726 l 551 360 m 990 1006 l 746 1093 l 503 1006 l 471 1089 l 749 1247 l 1028 1089 l 990 1006 z "},"Ê":{"ha":1242,"x_min":121,"x_max":1154,"o":"m 1154 926 l 1154 715 l 403 715 l 403 557 l 1104 557 l 1104 374 l 403 374 l 403 210 l 1154 210 l 1154 0 l 121 0 l 121 926 l 1154 926 m 863 1006 l 618 1093 l 375 1006 l 343 1089 l 621 1247 l 900 1089 l 863 1006 z "},"Á":{"ha":1496,"x_min":47,"x_max":1450,"o":"m 361 0 l 47 0 l 564 926 l 944 926 l 1450 0 l 1139 0 l 1051 168 l 453 168 l 361 0 m 551 360 l 949 360 l 750 726 l 551 360 m 601 1010 l 567 1103 l 878 1256 l 932 1103 l 601 1010 z "},"Ë":{"ha":1242,"x_min":121,"x_max":1154,"o":"m 1154 926 l 1154 715 l 403 715 l 403 557 l 1104 557 l 1104 374 l 403 374 l 403 210 l 1154 210 l 1154 0 l 121 0 l 121 926 l 1154 926 m 376 1013 l 376 1153 l 569 1153 l 569 1013 l 376 1013 m 672 1013 l 672 1153 l 865 1153 l 865 1013 l 672 1013 z "},"È":{"ha":1242,"x_min":121,"x_max":1154,"o":"m 1154 926 l 1154 715 l 403 715 l 403 557 l 1104 557 l 1104 374 l 403 374 l 403 210 l 1154 210 l 1154 0 l 121 0 l 121 926 l 1154 926 m 769 1010 l 439 1103 l 493 1256 l 804 1103 l 769 1010 z "},"Í":{"ha":524,"x_min":81,"x_max":446,"o":"m 121 0 l 121 926 l 403 926 l 403 0 l 121 0 m 115 1010 l 81 1103 l 392 1256 l 446 1103 l 115 1010 z "},"Î":{"ha":524,"x_min":-15,"x_max":542,"o":"m 121 0 l 121 926 l 403 926 l 403 0 l 121 0 m 504 1006 l 260 1093 l 17 1006 l -15 1089 l 263 1247 l 542 1089 l 504 1006 z "},"Ï":{"ha":524,"x_min":18,"x_max":507,"o":"m 121 0 l 121 926 l 403 926 l 403 0 l 121 0 m 18 1013 l 18 1153 l 211 1153 l 211 1013 l 18 1013 m 314 1013 l 314 1153 l 507 1153 l 507 1013 l 314 1013 z "},"Ì":{"ha":524,"x_min":81,"x_max":446,"o":"m 121 0 l 121 926 l 403 926 l 403 0 l 121 0 m 411 1010 l 81 1103 l 135 1256 l 446 1103 l 411 1010 z "},"Ó":{"ha":1474,"x_min":103,"x_max":1372,"o":"m 718 936 l 943 935 q 1281 853 1190 935 q 1372 525 1372 771 l 1372 481 q 1300 94 1372 192 q 935 -4 1228 -4 l 722 -8 l 633 -10 l 442 -3 q 193 70 281 -3 q 106 306 106 143 l 103 476 q 175 845 103 758 q 518 932 247 932 l 718 936 m 565 221 l 717 218 l 861 219 q 1033 245 981 219 q 1085 372 1085 271 l 1088 497 q 1080 606 1088 561 q 1049 673 1072 651 q 978 701 1025 694 q 879 708 932 708 l 599 707 q 453 688 503 707 q 395 605 403 668 q 388 500 388 542 l 388 475 l 388 438 q 417 265 388 310 q 565 221 447 221 m 590 1010 l 556 1103 l 867 1256 l 921 1103 l 590 1010 z "},"Ô":{"ha":1474,"x_min":103,"x_max":1372,"o":"m 718 936 l 943 935 q 1281 853 1190 935 q 1372 525 1372 771 l 1372 481 q 1300 94 1372 192 q 935 -4 1228 -4 l 722 -8 l 633 -10 l 442 -3 q 193 70 281 -3 q 106 306 106 143 l 103 476 q 175 845 103 758 q 518 932 247 932 l 718 936 m 565 221 l 717 218 l 861 219 q 1033 245 981 219 q 1085 372 1085 271 l 1088 497 q 1080 606 1088 561 q 1049 673 1072 651 q 978 701 1025 694 q 879 708 932 708 l 599 707 q 453 688 503 707 q 395 605 403 668 q 388 500 388 542 l 388 475 l 388 438 q 417 265 388 310 q 565 221 447 221 m 979 1006 l 735 1093 l 492 1006 l 460 1089 l 738 1247 l 1017 1089 l 979 1006 z "},"Ò":{"ha":1474,"x_min":103,"x_max":1372,"o":"m 718 936 l 943 935 q 1281 853 1190 935 q 1372 525 1372 771 l 1372 481 q 1300 94 1372 192 q 935 -4 1228 -4 l 722 -8 l 633 -10 l 442 -3 q 193 70 281 -3 q 106 306 106 143 l 103 476 q 175 845 103 758 q 518 932 247 932 l 718 936 m 565 221 l 717 218 l 861 219 q 1033 245 981 219 q 1085 372 1085 271 l 1088 497 q 1080 606 1088 561 q 1049 673 1072 651 q 978 701 1025 694 q 879 708 932 708 l 599 707 q 453 688 503 707 q 395 605 403 668 q 388 500 388 542 l 388 475 l 388 438 q 417 265 388 310 q 565 221 447 221 m 886 1010 l 556 1103 l 610 1256 l 921 1103 l 886 1010 z "},"Ú":{"ha":1431,"x_min":119,"x_max":1310,"o":"m 1310 397 l 1310 343 q 1197 58 1310 126 q 847 -11 1083 -11 l 617 -10 q 336 10 433 -10 q 179 108 239 29 q 119 357 119 188 l 119 925 l 401 925 l 401 440 q 435 260 401 301 q 603 218 468 218 l 729 217 l 846 218 q 994 254 961 218 q 1026 400 1026 290 l 1026 435 l 1026 925 l 1310 925 l 1310 397 m 567 1010 l 532 1103 l 843 1256 l 897 1103 l 567 1010 z "},"Û":{"ha":1431,"x_min":119,"x_max":1310,"o":"m 1310 397 l 1310 343 q 1197 58 1310 126 q 847 -11 1083 -11 l 617 -10 q 336 10 433 -10 q 179 108 239 29 q 119 357 119 188 l 119 925 l 401 925 l 401 440 q 435 260 401 301 q 603 218 468 218 l 729 217 l 846 218 q 994 254 961 218 q 1026 400 1026 290 l 1026 435 l 1026 925 l 1310 925 l 1310 397 m 956 1004 l 711 1092 l 468 1004 l 436 1088 l 714 1246 l 993 1088 l 956 1004 z "},"Ù":{"ha":1431,"x_min":119,"x_max":1310,"o":"m 1310 397 l 1310 343 q 1197 58 1310 126 q 847 -11 1083 -11 l 617 -10 q 336 10 433 -10 q 179 108 239 29 q 119 357 119 188 l 119 925 l 401 925 l 401 440 q 435 260 401 301 q 603 218 468 218 l 729 217 l 846 218 q 994 254 961 218 q 1026 400 1026 290 l 1026 435 l 1026 925 l 1310 925 l 1310 397 m 863 1010 l 532 1103 l 586 1256 l 897 1103 l 863 1010 z "},"ˆ":{"ha":694,"x_min":69,"x_max":626,"o":"m 589 739 l 344 826 l 101 739 l 69 822 l 347 981 l 626 822 l 589 739 z "},"¸":{"ha":694,"x_min":201,"x_max":494,"o":"m 247 -290 l 201 -201 l 424 -56 l 494 -211 l 247 -290 z "},"Š":{"ha":1365,"x_min":101,"x_max":1264,"o":"m 388 281 q 426 209 388 224 q 532 194 464 194 l 665 193 l 854 199 q 956 218 932 199 q 979 279 979 238 q 952 339 979 317 q 849 361 925 361 l 803 361 l 339 371 q 155 437 208 371 q 101 639 101 503 q 135 818 101 754 q 259 905 169 882 q 494 932 349 928 q 689 936 639 936 l 886 933 q 1076 915 1004 933 q 1178 846 1149 896 q 1217 756 1208 796 q 1225 644 1225 715 l 949 644 q 920 713 949 693 q 840 732 892 732 l 704 733 l 489 726 q 416 710 446 726 q 386 657 386 694 q 422 590 386 606 q 518 574 457 574 l 547 574 l 736 571 l 922 569 q 1183 513 1101 569 q 1264 288 1264 457 q 1191 63 1264 124 q 950 1 1118 1 l 589 -8 l 400 -4 q 179 44 250 -4 q 108 240 108 93 l 108 296 l 386 296 l 388 281 m 442 1247 l 686 1160 l 929 1247 l 961 1164 l 683 1006 l 404 1164 l 442 1247 z "},"š":{"ha":1071,"x_min":83,"x_max":988,"o":"m 665 508 q 625 515 646 514 q 575 517 604 517 l 471 517 q 426 516 447 517 q 383 512 406 515 q 345 494 360 508 q 331 460 331 481 q 353 424 331 432 q 411 415 375 415 l 676 414 q 910 383 832 414 q 988 222 988 351 q 965 94 988 140 q 880 24 943 49 q 730 -7 817 0 q 542 -14 643 -14 l 440 -14 q 176 22 268 -14 q 83 200 83 58 l 335 200 q 367 147 335 156 q 424 136 400 138 q 482 135 449 135 l 596 133 q 664 136 633 133 q 720 149 694 139 q 746 199 746 160 q 722 238 746 229 q 661 247 699 247 l 481 247 l 275 253 q 88 450 88 269 q 156 604 88 564 q 351 656 224 644 l 586 661 q 707 659 667 661 q 817 645 747 657 q 921 592 886 633 q 956 472 956 551 l 703 472 q 665 508 699 501 m 294 979 l 539 892 l 782 979 l 814 896 l 536 738 l 257 896 l 294 979 z "},"¦":{"ha":694,"x_min":214,"x_max":479,"o":"m 479 424 l 214 424 l 214 925 l 479 925 l 479 424 m 479 -232 l 214 -232 l 214 213 l 479 213 l 479 -232 z "},"Ð":{"ha":1465,"x_min":0,"x_max":1363,"o":"m 0 393 l 0 560 l 121 560 l 121 926 l 939 926 q 1250 866 1142 926 q 1358 625 1358 806 l 1363 457 l 1363 417 l 1363 396 q 1360 308 1363 332 q 1345 203 1358 283 q 1250 61 1332 122 q 1044 0 1168 0 l 121 0 l 121 393 l 0 393 m 1079 460 l 1079 468 q 1047 651 1079 603 q 885 699 1015 699 l 403 699 l 403 560 l 656 560 l 656 393 l 403 393 l 403 225 l 881 225 q 1045 275 1011 225 q 1079 460 1079 325 z "},"ð":{"ha":796,"x_min":33,"x_max":763,"o":"m 311 892 l 483 1006 l 529 932 l 407 856 q 674 642 585 764 q 763 332 763 521 q 656 78 763 178 q 392 -22 549 -22 q 134 83 235 -22 q 33 344 33 188 q 134 588 33 494 q 385 681 235 681 q 333 733 354 714 q 281 774 313 753 l 124 671 l 76 743 l 200 819 q 44 868 132 853 l 76 947 q 201 925 143 938 q 311 892 258 913 m 396 143 q 494 199 468 143 q 521 338 521 254 q 502 476 521 418 q 419 535 483 535 q 310 479 344 535 q 275 342 275 424 q 309 190 275 236 q 396 143 343 143 z "},"Ý":{"ha":1389,"x_min":28,"x_max":1361,"o":"m 1361 926 l 840 322 l 840 0 l 557 0 l 557 322 l 28 926 l 383 926 l 697 544 l 1008 926 l 1361 926 m 547 1010 l 513 1103 l 824 1256 l 878 1103 l 547 1010 z "},"ý":{"ha":1031,"x_min":51,"x_max":985,"o":"m 336 -294 l 246 -289 l 246 -125 l 299 -126 q 392 -101 367 -126 q 447 0 417 -75 l 349 0 l 51 649 l 318 649 l 508 171 l 718 649 l 985 649 l 604 -161 q 506 -272 563 -249 q 336 -294 450 -294 m 368 724 l 333 817 l 644 969 l 699 817 l 368 724 z "},"Þ":{"ha":1321,"x_min":119,"x_max":1242,"o":"m 401 814 l 897 814 q 1142 726 1043 814 q 1242 493 1242 638 q 1148 264 1242 347 q 906 181 1054 181 l 401 181 l 401 -1 l 119 -1 l 119 925 l 401 925 l 401 814 m 860 383 q 945 413 911 383 q 979 494 979 443 q 946 574 979 549 q 856 599 913 599 l 401 599 l 401 383 l 860 383 z "},"þ":{"ha":1115,"x_min":101,"x_max":1031,"o":"m 342 544 q 374 600 356 576 q 428 638 392 624 q 515 657 464 651 q 633 663 565 663 q 938 615 844 663 q 1031 378 1031 567 l 1031 299 q 1021 165 1031 219 q 967 63 1011 111 q 840 1 924 15 q 636 -14 756 -14 q 452 9 526 -14 q 342 110 378 32 l 342 -287 l 101 -287 l 101 926 l 342 926 l 342 544 m 596 165 q 753 195 717 165 q 789 339 789 225 q 763 449 789 418 q 654 481 736 481 l 496 483 q 419 478 444 483 q 376 458 394 472 q 350 417 357 444 q 343 351 343 389 l 343 326 q 369 205 343 242 q 476 168 396 168 l 596 165 z "},"×":{"ha":694,"x_min":58,"x_max":636,"o":"m 549 799 l 636 711 l 432 508 l 635 308 l 550 224 l 349 425 l 146 221 l 58 308 l 263 511 l 63 711 l 147 796 l 346 594 l 549 799 z "},"¹":{"ha":831,"x_min":121,"x_max":578,"o":"m 403 371 l 403 789 l 200 654 l 121 771 l 365 926 l 578 926 l 578 371 l 403 371 z "},"²":{"ha":831,"x_min":82,"x_max":751,"o":"m 82 371 l 82 514 q 90 591 82 561 q 136 647 99 621 q 293 680 174 672 q 481 692 413 688 q 567 703 549 697 q 585 749 585 710 q 575 794 585 783 q 541 809 565 806 q 483 813 517 813 q 403 811 443 813 q 322 808 363 810 q 261 793 278 808 q 244 736 244 778 l 244 721 l 83 721 l 82 763 q 129 899 82 872 q 293 926 176 926 l 499 929 l 578 928 q 712 891 672 928 q 751 760 751 854 q 713 615 751 656 q 569 574 675 574 l 431 564 l 311 556 q 258 546 274 556 q 243 501 243 536 l 243 488 l 751 488 l 751 371 l 82 371 z "},"³":{"ha":831,"x_min":74,"x_max":757,"o":"m 492 704 q 554 713 532 704 q 576 754 576 721 q 566 794 576 786 q 540 806 556 803 q 511 808 524 808 l 396 811 l 314 808 q 260 797 278 808 q 242 751 242 786 l 243 733 l 76 733 q 111 874 76 835 q 246 924 146 913 l 425 929 l 475 929 q 538 928 507 929 q 624 920 568 928 q 712 879 681 913 q 743 769 743 846 q 724 688 743 711 q 640 650 704 664 q 731 613 706 639 q 757 519 757 588 q 698 397 757 426 q 533 368 639 368 l 290 368 q 126 399 178 368 q 74 533 74 429 l 75 567 l 236 567 q 249 503 236 519 q 308 488 261 488 l 519 486 q 571 496 551 486 q 590 536 590 506 q 575 581 590 568 q 526 593 560 593 l 344 593 l 344 704 l 492 704 z "},"½":{"ha":1975,"x_min":121,"x_max":1893,"o":"m 403 371 l 403 789 l 200 653 l 121 771 l 365 926 l 578 926 l 578 371 l 403 371 m 672 0 l 532 0 l 1303 926 l 1442 926 l 672 0 m 1225 0 l 1225 143 q 1233 219 1225 189 q 1280 276 1242 250 q 1437 310 1318 303 q 1626 323 1556 318 q 1712 337 1696 328 q 1728 378 1728 346 l 1728 388 q 1718 424 1725 414 q 1685 438 1711 435 q 1626 442 1660 442 q 1545 440 1586 442 q 1464 438 1504 439 q 1404 424 1421 438 q 1388 371 1388 410 l 1386 350 l 1225 350 l 1225 392 q 1272 530 1225 504 q 1435 556 1319 556 l 1642 558 q 1850 518 1807 558 q 1893 389 1893 478 q 1855 244 1893 285 q 1711 203 1817 203 l 1572 193 l 1454 185 q 1402 175 1418 185 q 1386 133 1386 165 l 1386 117 l 1893 117 l 1893 0 l 1225 0 z "},"¼":{"ha":1975,"x_min":121,"x_max":1914,"o":"m 403 371 l 403 789 l 200 653 l 121 771 l 365 926 l 578 926 l 578 371 l 403 371 m 672 0 l 532 0 l 1303 926 l 1442 926 l 672 0 m 1914 226 l 1914 110 l 1822 110 l 1822 0 l 1660 0 l 1660 110 l 1210 110 l 1210 306 l 1619 556 l 1822 556 l 1822 226 l 1914 226 m 1339 226 l 1660 226 l 1660 424 l 1339 226 z "},"¾":{"ha":1975,"x_min":74,"x_max":1914,"o":"m 492 704 q 554 713 532 704 q 576 753 576 721 q 574 779 576 769 q 561 797 572 789 q 515 808 550 804 q 439 811 481 811 l 396 811 l 314 808 q 260 797 278 808 q 242 750 242 786 l 243 733 l 76 733 q 113 878 76 835 q 246 922 149 922 q 329 928 279 926 q 425 929 379 929 l 469 929 q 533 928 503 929 q 622 920 564 928 q 712 879 681 913 q 743 769 743 846 q 726 693 743 718 q 661 654 710 668 l 640 649 q 731 613 704 642 q 757 519 757 585 q 698 397 757 426 q 533 368 639 368 l 290 368 q 126 399 178 368 q 74 533 74 429 l 75 567 l 236 567 q 249 503 236 519 q 308 488 261 488 l 519 486 q 575 499 560 486 q 590 535 590 513 q 575 581 590 568 q 526 593 560 593 l 483 592 l 344 592 l 344 704 l 492 704 m 672 0 l 532 0 l 1303 926 l 1442 926 l 672 0 m 1914 226 l 1914 110 l 1822 110 l 1822 0 l 1660 0 l 1660 110 l 1210 110 l 1210 306 l 1619 556 l 1822 556 l 1822 226 l 1914 226 m 1339 226 l 1660 226 l 1660 424 l 1339 226 z "}}}
